<svg width="640" height="720" viewBox="0 0 640 720" fill="none" xmlns="http://www.w3.org/2000/svg">
<g id="Mask Group">
<mask id="mask0" mask-type="alpha" maskUnits="userSpaceOnUse" x="0" y="0" width="640" height="720">
<rect id="Rectangle 8" width="640" height="720" fill="#C4C4C4"/>
</mask>
<g mask="url(#mask0)">
<g id="Group 2">
<path id="Vector" d="M1055.89 -11.7853H-82.286V746.998H1055.89V-11.7853Z" fill="#D1E6ED"/>
<g id="Group" opacity="0.58">
<g id="Group_2" opacity="0.58">
<path id="Vector_2" opacity="0.8" d="M314.087 299.028H257.528C254.796 299.028 252.58 296.812 252.58 294.08V281.272C252.58 278.541 254.796 276.325 257.528 276.325H314.087C316.819 276.325 319.035 278.541 319.035 281.272V294.08C319.02 296.812 316.804 299.028 314.087 299.028Z" fill="#6AC9FF"/>
<path id="Vector_3" opacity="0.58" d="M383.106 299.028H326.547C323.815 299.028 321.599 296.812 321.599 294.08V281.272C321.599 278.541 323.815 276.325 326.547 276.325H383.106C385.838 276.325 388.054 278.541 388.054 281.272V294.08C388.054 296.812 385.838 299.028 383.106 299.028Z" fill="#6AC9FF"/>
<path id="Vector_4" opacity="0.77" d="M383.106 350.731H326.547C323.815 350.731 321.599 348.516 321.599 345.784V332.976C321.599 330.244 323.815 328.028 326.547 328.028H383.106C385.838 328.028 388.054 330.244 388.054 332.976V345.784C388.054 348.516 385.838 350.731 383.106 350.731Z" fill="#6AC9FF"/>
<path id="Vector_5" opacity="0.32" d="M346.488 376.226H289.928C287.196 376.226 284.98 374.011 284.98 371.279V358.471C284.98 355.739 287.196 353.524 289.928 353.524H346.488C349.219 353.524 351.435 355.739 351.435 358.471V371.279C351.42 374.011 349.204 376.226 346.488 376.226Z" fill="#6AC9FF"/>
<path id="Vector_6" opacity="0.58" d="M311.902 350.731H255.342C252.611 350.731 250.395 348.516 250.395 345.784V332.976C250.395 330.244 252.611 328.028 255.342 328.028H311.902C314.634 328.028 316.849 330.244 316.849 332.976V345.784C316.849 348.516 314.634 350.731 311.902 350.731Z" fill="#6AC9FF"/>
<path id="Vector_7" opacity="0.73" d="M242.049 350.731H185.489C182.757 350.731 180.542 348.516 180.542 345.784V332.976C180.542 330.244 182.757 328.028 185.489 328.028H242.049C244.78 328.028 246.996 330.244 246.996 332.976V345.784C246.996 348.516 244.78 350.731 242.049 350.731Z" fill="#6AC9FF"/>
<path id="Vector_8" opacity="0.48" d="M348.415 324.644H291.855C289.123 324.644 286.908 322.429 286.908 319.697V306.889C286.908 304.157 289.123 301.941 291.855 301.941H348.415C351.146 301.941 353.362 304.157 353.362 306.889V319.697C353.347 322.429 351.131 324.644 348.415 324.644Z" fill="#6AC9FF"/>
<path id="Vector_9" opacity="0.58" d="M418.451 324.644H361.891C359.159 324.644 356.944 322.429 356.944 319.697V306.889C356.944 304.157 359.159 301.941 361.891 301.941H418.451C421.182 301.941 423.398 304.157 423.398 306.889V319.697C423.398 322.429 421.182 324.644 418.451 324.644Z" fill="#6AC9FF"/>
<path id="Vector_10" opacity="0.45" d="M418.451 273.411H361.891C359.159 273.411 356.944 271.196 356.944 268.464V255.656C356.944 252.924 359.159 250.708 361.891 250.708H418.451C421.182 250.708 423.398 252.924 423.398 255.656V268.464C423.398 271.196 421.182 273.411 418.451 273.411Z" fill="#6AC9FF"/>
<path id="Vector_11" opacity="0.58" d="M278.683 324.644H222.123C219.391 324.644 217.176 322.429 217.176 319.697V306.889C217.176 304.157 219.391 301.941 222.123 301.941H278.683C281.414 301.941 283.63 304.157 283.63 306.889V319.697C283.63 322.429 281.414 324.644 278.683 324.644Z" fill="#6AC9FF"/>
</g>
<g id="Group_3" opacity="0.58">
<path id="Vector_12" opacity="0.77" d="M584.928 125.175H641.487C644.219 125.175 646.435 122.96 646.435 120.228V107.42C646.435 104.688 644.219 102.472 641.487 102.472H584.928C582.196 102.472 579.98 104.688 579.98 107.42V120.228C579.98 122.96 582.196 125.175 584.928 125.175Z" fill="#6AC9FF"/>
<path id="Vector_13" opacity="0.32" d="M621.547 150.67H678.106C680.838 150.67 683.054 148.455 683.054 145.723V132.915C683.054 130.183 680.838 127.968 678.106 127.968H621.547C618.815 127.968 616.599 130.183 616.599 132.915V145.723C616.615 148.455 618.83 150.67 621.547 150.67Z" fill="#6AC9FF"/>
<path id="Vector_14" opacity="0.48" d="M619.619 99.0882H676.179C678.911 99.0882 681.126 96.8726 681.126 94.1409V81.3478C681.126 78.6162 678.911 76.4006 676.179 76.4006H619.619C616.888 76.4006 614.672 78.6162 614.672 81.3478V94.1561C614.687 96.8726 616.903 99.0882 619.619 99.0882Z" fill="#6AC9FF"/>
<path id="Vector_15" opacity="0.58" d="M549.584 99.0882H606.143C608.875 99.0882 611.091 96.8726 611.091 94.1409V81.3478C611.091 78.6162 608.875 76.4006 606.143 76.4006H549.584C546.852 76.4006 544.636 78.6162 544.636 81.3478V94.1561C544.636 96.8726 546.852 99.0882 549.584 99.0882Z" fill="#6AC9FF"/>
<path id="Vector_16" opacity="0.45" d="M549.584 47.8551H606.143C608.875 47.8551 611.091 45.6395 611.091 42.9079V30.0996C611.091 27.368 608.875 25.1523 606.143 25.1523H549.584C546.852 25.1523 544.636 27.368 544.636 30.0996V42.9079C544.636 45.6395 546.852 47.8551 549.584 47.8551Z" fill="#6AC9FF"/>
</g>
<g id="Group_4" opacity="0.58">
<path id="Vector_17" opacity="0.8" d="M338.945 630.996H395.505C398.237 630.996 400.452 628.78 400.452 626.048V613.24C400.452 610.508 398.237 608.293 395.505 608.293H338.945C336.214 608.293 333.998 610.508 333.998 613.24V626.048C333.998 628.78 336.214 630.996 338.945 630.996Z" fill="#6AC9FF"/>
<path id="Vector_18" opacity="0.58" d="M269.926 630.996H326.486C329.218 630.996 331.433 628.78 331.433 626.048V613.24C331.433 610.508 329.218 608.293 326.486 608.293H269.926C267.195 608.293 264.979 610.508 264.979 613.24V626.048C264.979 628.78 267.195 630.996 269.926 630.996Z" fill="#6AC9FF"/>
<path id="Vector_19" opacity="0.77" d="M269.926 682.699H326.486C329.218 682.699 331.433 680.483 331.433 677.752V664.944C331.433 662.212 329.218 659.996 326.486 659.996H269.926C267.195 659.996 264.979 662.212 264.979 664.944V677.752C264.979 680.499 267.195 682.699 269.926 682.699Z" fill="#6AC9FF"/>
<path id="Vector_20" opacity="0.32" d="M306.545 708.209H363.105C365.837 708.209 368.052 705.994 368.052 703.262V690.454C368.052 687.722 365.837 685.507 363.105 685.507H306.545C303.813 685.507 301.598 687.722 301.598 690.454V703.262C301.598 705.994 303.813 708.209 306.545 708.209Z" fill="#6AC9FF"/>
<path id="Vector_21" opacity="0.58" d="M341.13 682.699H397.69C400.422 682.699 402.637 680.483 402.637 677.752V664.944C402.637 662.212 400.422 659.996 397.69 659.996H341.13C338.399 659.996 336.183 662.212 336.183 664.944V677.752C336.183 680.499 338.399 682.699 341.13 682.699Z" fill="#6AC9FF"/>
<path id="Vector_22" opacity="0.73" d="M410.984 682.699H467.544C470.276 682.699 472.491 680.483 472.491 677.752V664.944C472.491 662.212 470.276 659.996 467.544 659.996H410.984C408.252 659.996 406.037 662.212 406.037 664.944V677.752C406.037 680.499 408.252 682.699 410.984 682.699Z" fill="#6AC9FF"/>
<path id="Vector_23" opacity="0.48" d="M304.618 656.612H361.178C363.909 656.612 366.125 654.396 366.125 651.665V638.857C366.125 636.125 363.909 633.909 361.178 633.909H304.618C301.886 633.909 299.671 636.125 299.671 638.857V651.665C299.671 654.396 301.886 656.612 304.618 656.612Z" fill="#6AC9FF"/>
<path id="Vector_24" opacity="0.58" d="M234.567 656.612H291.127C293.858 656.612 296.074 654.396 296.074 651.665V638.857C296.074 636.125 293.858 633.909 291.127 633.909H234.567C231.835 633.909 229.62 636.125 229.62 638.857V651.665C229.635 654.396 231.85 656.612 234.567 656.612Z" fill="#6AC9FF"/>
<path id="Vector_25" opacity="0.45" d="M234.567 605.379H291.127C293.858 605.379 296.074 603.163 296.074 600.432V587.624C296.074 584.892 293.858 582.676 291.127 582.676H234.567C231.835 582.676 229.62 584.892 229.62 587.624V600.432C229.635 603.179 231.85 605.379 234.567 605.379Z" fill="#6AC9FF"/>
<path id="Vector_26" opacity="0.58" d="M374.35 656.612H430.91C433.641 656.612 435.857 654.396 435.857 651.665V638.857C435.857 636.125 433.641 633.909 430.91 633.909H374.35C371.618 633.909 369.403 636.125 369.403 638.857V651.665C369.403 654.396 371.618 656.612 374.35 656.612Z" fill="#6AC9FF"/>
</g>
<g id="Group_5" opacity="0.58">
<path id="Vector_27" opacity="0.8" d="M231.289 70.6945H174.729C171.998 70.6945 169.782 68.4789 169.782 65.7472V52.939C169.782 50.2074 171.998 47.9917 174.729 47.9917H231.289C234.021 47.9917 236.236 50.2074 236.236 52.939V65.7472C236.221 68.4789 234.021 70.6945 231.289 70.6945Z" fill="#6AC9FF"/>
<path id="Vector_28" opacity="0.58" d="M300.308 70.6945H243.748C241.017 70.6945 238.801 68.4789 238.801 65.7472V52.939C238.801 50.2074 241.017 47.9917 243.748 47.9917H300.308C303.04 47.9917 305.255 50.2074 305.255 52.939V65.7472C305.255 68.4789 303.04 70.6945 300.308 70.6945Z" fill="#6AC9FF"/>
<path id="Vector_29" opacity="0.77" d="M300.308 122.398H243.748C241.017 122.398 238.801 120.182 238.801 117.451V104.642C238.801 101.911 241.017 99.6952 243.748 99.6952H300.308C303.04 99.6952 305.255 101.911 305.255 104.642V117.451C305.255 120.182 303.04 122.398 300.308 122.398Z" fill="#6AC9FF"/>
<path id="Vector_30" opacity="0.32" d="M263.689 147.893H207.129C204.398 147.893 202.182 145.678 202.182 142.946V130.138C202.182 127.406 204.398 125.19 207.129 125.19H263.689C266.421 125.19 268.636 127.406 268.636 130.138V142.946C268.621 145.678 266.405 147.893 263.689 147.893Z" fill="#6AC9FF"/>
<path id="Vector_31" opacity="0.58" d="M229.104 122.398H172.544C169.812 122.398 167.597 120.182 167.597 117.451V104.642C167.597 101.911 169.812 99.6952 172.544 99.6952H229.104C231.835 99.6952 234.051 101.911 234.051 104.642V117.451C234.051 120.182 231.835 122.398 229.104 122.398Z" fill="#6AC9FF"/>
<path id="Vector_32" opacity="0.73" d="M159.25 122.398H102.69C99.9587 122.398 97.743 120.182 97.743 117.451V104.642C97.743 101.911 99.9587 99.6952 102.69 99.6952H159.25C161.982 99.6952 164.197 101.911 164.197 104.642V117.451C164.197 120.182 161.982 122.398 159.25 122.398Z" fill="#6AC9FF"/>
<path id="Vector_33" opacity="0.48" d="M265.616 96.3111H209.057C206.325 96.3111 204.109 94.0954 204.109 91.3638V78.5555C204.109 75.8239 206.325 73.6082 209.057 73.6082H265.616C268.348 73.6082 270.564 75.8239 270.564 78.5555V91.3638C270.548 94.0954 268.333 96.3111 265.616 96.3111Z" fill="#6AC9FF"/>
<path id="Vector_34" opacity="0.58" d="M335.652 96.3111H279.092C276.361 96.3111 274.145 94.0954 274.145 91.3638V78.5555C274.145 75.8239 276.361 73.6082 279.092 73.6082H335.652C338.384 73.6082 340.599 75.8239 340.599 78.5555V91.3638C340.599 94.0954 338.384 96.3111 335.652 96.3111Z" fill="#6AC9FF"/>
<path id="Vector_35" opacity="0.45" d="M335.652 45.078H279.092C276.361 45.078 274.145 42.8623 274.145 40.1307V27.3224C274.145 24.5908 276.361 22.3752 279.092 22.3752H335.652C338.384 22.3752 340.599 24.5908 340.599 27.3224V40.1307C340.599 42.8623 338.384 45.078 335.652 45.078Z" fill="#6AC9FF"/>
<path id="Vector_36" opacity="0.58" d="M195.884 96.3111H139.324C136.593 96.3111 134.377 94.0954 134.377 91.3638V78.5555C134.377 75.8239 136.593 73.6082 139.324 73.6082H195.884C198.616 73.6082 200.831 75.8239 200.831 78.5555V91.3638C200.831 94.0954 198.616 96.3111 195.884 96.3111Z" fill="#6AC9FF"/>
</g>
<g id="Group_6" opacity="0.58">
<path id="Vector_37" opacity="0.8" d="M95.664 708.801H39.1042C36.3726 708.801 34.1569 706.586 34.1569 703.854V691.046C34.1569 688.314 36.3726 686.098 39.1042 686.098H95.664C98.3956 686.098 100.611 688.314 100.611 691.046V703.854C100.596 706.586 98.3956 708.801 95.664 708.801Z" fill="#6AC9FF"/>
<path id="Vector_38" opacity="0.58" d="M164.683 708.801H108.123C105.392 708.801 103.176 706.586 103.176 703.854V691.046C103.176 688.314 105.392 686.098 108.123 686.098H164.683C167.415 686.098 169.63 688.314 169.63 691.046V703.854C169.63 706.586 167.415 708.801 164.683 708.801Z" fill="#6AC9FF"/>
<path id="Vector_39" opacity="0.58" d="M200.027 734.418H143.467C140.736 734.418 138.52 732.202 138.52 729.471V716.662C138.52 713.931 140.736 711.715 143.467 711.715H200.027C202.759 711.715 204.974 713.931 204.974 716.662V729.471C204.974 732.202 202.759 734.418 200.027 734.418Z" fill="#6AC9FF"/>
<path id="Vector_40" opacity="0.45" d="M200.027 683.185H143.467C140.736 683.185 138.52 680.969 138.52 678.238V665.429C138.52 662.698 140.736 660.482 143.467 660.482H200.027C202.759 660.482 204.974 662.698 204.974 665.429V678.238C204.974 680.969 202.759 683.185 200.027 683.185Z" fill="#6AC9FF"/>
<path id="Vector_41" opacity="0.58" d="M60.2591 734.418H3.71453C0.98291 734.418 -1.23274 732.202 -1.23274 729.471V716.662C-1.23274 713.931 0.98291 711.715 3.71453 711.715H60.2743C63.0059 711.715 65.2215 713.931 65.2215 716.662V729.471C65.2064 732.202 62.9907 734.418 60.2591 734.418Z" fill="#6AC9FF"/>
</g>
<g id="Group_7" opacity="0.58">
<path id="Vector_42" opacity="0.8" d="M40.6673 400.826H-15.8924C-18.6241 400.826 -20.8397 398.611 -20.8397 395.879V383.071C-20.8397 380.339 -18.6241 378.123 -15.8924 378.123H40.6673C43.3989 378.123 45.6146 380.339 45.6146 383.071V395.879C45.5994 398.611 43.3837 400.826 40.6673 400.826Z" fill="#6AC9FF"/>
<path id="Vector_43" opacity="0.8" d="M18.1618 347.62H-38.398C-41.1296 347.62 -43.3452 345.405 -43.3452 342.673V329.865C-43.3452 327.133 -41.1296 324.917 -38.398 324.917H18.1618C20.8934 324.917 23.109 327.133 23.109 329.865V342.673C23.0939 345.405 20.8782 347.62 18.1618 347.62Z" fill="#6AC9FF"/>
<path id="Vector_44" opacity="0.58" d="M109.686 400.826H53.1266C50.3949 400.826 48.1793 398.611 48.1793 395.879V383.071C48.1793 380.339 50.3949 378.123 53.1266 378.123H109.686C112.418 378.123 114.634 380.339 114.634 383.071V395.879C114.634 398.611 112.418 400.826 109.686 400.826Z" fill="#6AC9FF"/>
<path id="Vector_45" opacity="0.77" d="M109.686 452.53H53.1266C50.3949 452.53 48.1793 450.314 48.1793 447.582V434.774C48.1793 432.043 50.3949 429.827 53.1266 429.827H109.686C112.418 429.827 114.634 432.043 114.634 434.774V447.582C114.634 450.314 112.418 452.53 109.686 452.53Z" fill="#6AC9FF"/>
<path id="Vector_46" opacity="0.32" d="M73.0522 478.025H16.5076C13.776 478.025 11.5604 475.809 11.5604 473.078V460.269C11.5604 457.538 13.776 455.322 16.5076 455.322H73.0674C75.799 455.322 78.0146 457.538 78.0146 460.269V473.078C77.9995 475.809 75.7838 478.025 73.0522 478.025Z" fill="#6AC9FF"/>
<path id="Vector_47" opacity="0.58" d="M38.482 452.53H-18.0777C-20.8093 452.53 -23.025 450.314 -23.025 447.582V434.774C-23.025 432.043 -20.8093 429.827 -18.0777 429.827H38.482C41.2136 429.827 43.4293 432.043 43.4293 434.774V447.582C43.4293 450.314 41.2136 452.53 38.482 452.53Z" fill="#6AC9FF"/>
<path id="Vector_48" opacity="0.48" d="M74.9947 426.443H18.4349C15.7033 426.443 13.4877 424.227 13.4877 421.495V408.687C13.4877 405.956 15.7033 403.74 18.4349 403.74H74.9947C77.7263 403.74 79.942 405.956 79.942 408.687V421.495C79.9268 424.227 77.7111 426.443 74.9947 426.443Z" fill="#6AC9FF"/>
<path id="Vector_49" opacity="0.58" d="M145.03 426.443H88.4707C85.7391 426.443 83.5234 424.227 83.5234 421.495V408.687C83.5234 405.956 85.7391 403.74 88.4707 403.74H145.03C147.762 403.74 149.978 405.956 149.978 408.687V421.495C149.978 424.227 147.762 426.443 145.03 426.443Z" fill="#6AC9FF"/>
<path id="Vector_50" opacity="0.45" d="M145.03 375.21H88.4707C85.7391 375.21 83.5234 372.994 83.5234 370.262V357.454C83.5234 354.722 85.7391 352.507 88.4707 352.507H145.03C147.762 352.507 149.978 354.722 149.978 357.454V370.262C149.978 372.994 147.762 375.21 145.03 375.21Z" fill="#6AC9FF"/>
<path id="Vector_51" opacity="0.58" d="M5.26245 426.443H-51.2973C-54.0289 426.443 -56.2446 424.227 -56.2446 421.495V408.687C-56.2446 405.956 -54.0289 403.74 -51.2973 403.74H5.26245C7.99407 403.74 10.2097 405.956 10.2097 408.687V421.495C10.2097 424.227 7.99407 426.443 5.26245 426.443Z" fill="#6AC9FF"/>
</g>
<g id="Group_8" opacity="0.58">
<path id="Vector_52" opacity="0.58" d="M90.5649 43.1355H34.0052C31.2735 43.1355 29.0579 40.9198 29.0579 38.1882V25.3799C29.0579 22.6483 31.2735 20.4327 34.0052 20.4327H90.5649C93.2965 20.4327 95.5122 22.6483 95.5122 25.3799V38.1882C95.497 40.9198 93.2814 43.1355 90.5649 43.1355Z" fill="#6AC9FF"/>
<path id="Vector_53" opacity="0.32" d="M53.9308 120.334H-2.6289C-5.36052 120.334 -7.57617 118.119 -7.57617 115.387V102.579C-7.57617 99.847 -5.36052 97.6313 -2.6289 97.6313H53.9308C56.6625 97.6313 58.8781 99.847 58.8781 102.579V115.387C58.8781 118.119 56.6625 120.334 53.9308 120.334Z" fill="#6AC9FF"/>
<path id="Vector_54" opacity="0.48" d="M55.8581 68.7521H-0.701603C-3.43322 68.7521 -5.64886 66.5364 -5.64886 63.8048V50.9965C-5.64886 48.2649 -3.43322 46.0493 -0.701603 46.0493H55.8581C58.5898 46.0493 60.8054 48.2649 60.8054 50.9965V63.8048C60.8054 66.5364 58.5898 68.7521 55.8581 68.7521Z" fill="#6AC9FF"/>
<path id="Vector_55" opacity="0.45" d="M125.909 17.5189H69.3493C66.6177 17.5189 64.402 15.3033 64.402 12.5717V-0.236595C64.402 -2.96822 66.6177 -5.18387 69.3493 -5.18387H125.909C128.641 -5.18387 130.856 -2.96822 130.856 -0.236595V12.5717C130.841 15.3033 128.641 17.5189 125.909 17.5189Z" fill="#6AC9FF"/>
</g>
<g id="Group_9" opacity="0.58">
<path id="Vector_56" opacity="0.8" d="M565.321 704.825H508.761C506.029 704.825 503.814 702.61 503.814 699.878V687.07C503.814 684.338 506.029 682.122 508.761 682.122H565.321C568.052 682.122 570.268 684.338 570.268 687.07V699.878C570.253 702.61 568.052 704.825 565.321 704.825Z" fill="#6AC9FF"/>
<path id="Vector_57" opacity="0.8" d="M542.815 651.619H486.255C483.524 651.619 481.308 649.404 481.308 646.672V633.864C481.308 631.132 483.524 628.917 486.255 628.917H542.815C545.547 628.917 547.762 631.132 547.762 633.864V646.672C547.747 649.404 545.532 651.619 542.815 651.619Z" fill="#6AC9FF"/>
<path id="Vector_58" opacity="0.58" d="M634.34 704.825H577.78C575.048 704.825 572.833 702.61 572.833 699.878V687.07C572.833 684.338 575.048 682.122 577.78 682.122H634.34C637.071 682.122 639.287 684.338 639.287 687.07V699.878C639.287 702.61 637.071 704.825 634.34 704.825Z" fill="#6AC9FF"/>
<path id="Vector_59" opacity="0.48" d="M599.648 730.442H543.088C540.357 730.442 538.141 728.226 538.141 725.495V712.686C538.141 709.955 540.357 707.739 543.088 707.739H599.648C602.38 707.739 604.595 709.955 604.595 712.686V725.495C604.58 728.226 602.365 730.442 599.648 730.442Z" fill="#6AC9FF"/>
<path id="Vector_60" opacity="0.58" d="M669.684 730.442H613.124C610.393 730.442 608.177 728.226 608.177 725.495V712.686C608.177 709.955 610.393 707.739 613.124 707.739H669.684C672.416 707.739 674.631 709.955 674.631 712.686V725.495C674.631 728.226 672.416 730.442 669.684 730.442Z" fill="#6AC9FF"/>
<path id="Vector_61" opacity="0.45" d="M669.684 679.209H613.124C610.393 679.209 608.177 676.993 608.177 674.261V661.453C608.177 658.722 610.393 656.506 613.124 656.506H669.684C672.416 656.506 674.631 658.722 674.631 661.453V674.261C674.631 676.993 672.416 679.209 669.684 679.209Z" fill="#6AC9FF"/>
<path id="Vector_62" opacity="0.58" d="M529.916 730.442H473.356C470.625 730.442 468.409 728.226 468.409 725.495V712.686C468.409 709.955 470.625 707.739 473.356 707.739H529.916C532.648 707.739 534.863 709.955 534.863 712.686V725.495C534.863 728.226 532.648 730.442 529.916 730.442Z" fill="#6AC9FF"/>
</g>
<g id="Group_10" opacity="0.58">
<path id="Vector_63" opacity="0.58" d="M572.924 336.284H516.364C513.632 336.284 511.417 334.068 511.417 331.337V318.528C511.417 315.797 513.632 313.581 516.364 313.581H572.924C575.655 313.581 577.871 315.797 577.871 318.528V331.337C577.856 334.068 575.64 336.284 572.924 336.284Z" fill="#6AC9FF"/>
<path id="Vector_64" opacity="0.32" d="M677.348 413.483H620.788C618.056 413.483 615.841 411.267 615.841 408.535V395.727C615.841 392.996 618.056 390.78 620.788 390.78H677.348C680.079 390.78 682.295 392.996 682.295 395.727V408.535C682.295 411.267 680.079 413.483 677.348 413.483Z" fill="#6AC9FF"/>
<path id="Vector_65" opacity="0.58" d="M642.777 387.988H586.218C583.486 387.988 581.27 385.772 581.27 383.04V370.232C581.27 367.5 583.486 365.285 586.218 365.285H642.777C645.509 365.285 647.725 367.5 647.725 370.232V383.04C647.71 385.772 645.509 387.988 642.777 387.988Z" fill="#6AC9FF"/>
<path id="Vector_66" opacity="0.73" d="M572.924 387.988H516.364C513.632 387.988 511.417 385.772 511.417 383.04V370.232C511.417 367.5 513.632 365.285 516.364 365.285H572.924C575.655 365.285 577.871 367.5 577.871 370.232V383.04C577.856 385.772 575.64 387.988 572.924 387.988Z" fill="#6AC9FF"/>
<path id="Vector_67" opacity="0.58" d="M609.558 361.901H552.998C550.267 361.901 548.051 359.685 548.051 356.953V344.145C548.051 341.413 550.267 339.198 552.998 339.198H609.558C612.289 339.198 614.505 341.413 614.505 344.145V356.953C614.49 359.685 612.289 361.901 609.558 361.901Z" fill="#6AC9FF"/>
</g>
</g>
<g id="Group_11">
<g id="Group_12">
<path id="Vector_68" d="M601.94 409.658H406.993V661.666H601.94V409.658Z" fill="#34468F"/>
<path id="Vector_69" opacity="0.43" d="M406.993 409.658V455.216C490.914 476.963 552.877 553.22 552.877 643.941V661.666H601.94V409.658H406.993Z" fill="#34468F"/>
<path id="Vector_70" opacity="0.43" d="M418.344 421.48H597.842V411.191H408.677V663.214H418.344V421.48Z" fill="#34468F"/>
<path id="Vector_71" d="M600.027 458.949H411.014V464.503H600.027V458.949Z" fill="#F27367"/>
</g>
<g id="Group_13">
<g id="Group_14">
<path id="Vector_72" d="M562.726 581.872C562.726 581.872 521.266 540.594 516.592 537.134C511.933 533.674 503.116 527.892 494.556 537.134C485.997 546.376 515.029 608.521 527.108 625.624C544.576 650.33 564.016 648.812 583.456 637.111C602.911 625.411 562.726 581.872 562.726 581.872Z" fill="#FCB29A"/>
<path id="Vector_73" opacity="0.15" d="M562.726 581.872C562.726 581.872 521.266 540.594 516.592 537.134C511.933 533.674 503.116 527.892 494.556 537.134C485.997 546.376 515.028 608.521 527.108 625.624C544.576 650.33 561.982 640.01 581.422 628.31C600.877 616.609 562.726 581.872 562.726 581.872Z" fill="#FCB29A"/>
<path id="Vector_74" d="M513.04 559.138C513.04 559.138 516.804 581.962 509.535 597.002C502.266 612.041 487.606 638.583 487.606 638.583C487.606 638.583 492.796 647.096 489.427 650.481H446.146C446.146 650.481 444.598 646.869 453.658 643.758C462.733 640.647 471.535 636.762 471.535 636.762C471.535 636.762 483.463 565.755 485.527 555.375C487.606 545.01 496.135 531.928 502.372 532.338C508.609 532.763 513.04 559.138 513.04 559.138Z" fill="#FCB29A"/>
<path id="Vector_75" opacity="0.15" d="M513.04 559.138C513.04 559.138 516.804 581.962 509.535 597.002C502.266 612.041 487.606 638.583 487.606 638.583C487.606 638.583 492.796 647.096 489.427 650.481H446.146C446.146 650.481 444.598 646.869 453.658 643.758C462.733 640.647 471.535 636.762 471.535 636.762C471.535 636.762 483.463 565.755 485.527 555.375C487.606 545.01 496.135 531.928 502.372 532.338C508.609 532.763 513.04 559.138 513.04 559.138Z" fill="#FCB29A"/>
<path id="Vector_76" opacity="0.58" d="M468.242 626.959L471.338 638.781L504.664 591.736L501.841 553.463L468.242 626.959Z" fill="#FCB29A"/>
</g>
<path id="Vector_77" d="M555.532 491.562C555.532 491.562 559.144 514.052 565.913 516.313C572.681 518.574 545.516 525.874 545.516 525.874C545.516 525.874 545.82 511.715 541.07 505.098C536.335 498.512 555.532 491.562 555.532 491.562Z" fill="#FCB29A"/>
<path id="Vector_78" opacity="0.59" d="M553.863 501.213L545.243 513.961L544.712 516.541L545.486 522.353C545.486 522.353 551.814 520.896 553.863 501.213Z" fill="#FCB29A"/>
<g id="Group_15">
<path id="Vector_79" d="M546.867 581.872C546.867 581.872 505.407 540.594 500.733 537.134C496.074 533.674 487.257 527.892 478.698 537.134C470.139 546.376 499.17 608.521 511.25 625.624C528.717 650.33 563.181 656.597 582.621 644.897C602.061 633.196 546.867 581.872 546.867 581.872Z" fill="#FCB29A"/>
<path id="Vector_80" opacity="0.33" d="M495.786 571.902C495.786 571.902 500.536 585.438 494.374 594.65L496.894 599.901C496.878 599.886 501.841 588.716 495.786 571.902Z" fill="#FCB29A"/>
<path id="Vector_81" d="M546.867 581.872C546.867 581.872 540.038 575.073 531.6 566.757C528.869 576.53 520.78 592.449 496.878 599.886C502.22 610.827 507.532 620.358 511.25 625.608C528.717 650.314 563.181 656.582 582.621 644.881C602.061 633.196 546.867 581.872 546.867 581.872Z" fill="#B2CCB0"/>
<path id="Vector_82" d="M496.757 559.336C496.757 559.336 500.521 582.16 493.251 597.199C485.982 612.239 471.323 638.781 471.323 638.781C471.323 638.781 476.513 647.294 473.144 650.679H429.863C429.863 650.679 428.315 647.067 437.375 643.956C446.45 640.845 455.252 636.96 455.252 636.96C455.252 636.96 467.18 565.953 469.244 555.573C471.323 545.208 479.851 532.126 486.088 532.536C492.341 532.961 496.757 559.336 496.757 559.336Z" fill="#FCB29A"/>
<g id="Group_16" opacity="0.33">
<path id="Vector_83" opacity="0.33" d="M525.5 609.522C522.814 605.288 519.293 598.414 515.62 590.325C512.236 592.176 503.753 598.793 496.878 599.901C502.22 610.842 507.532 620.373 511.25 625.624C528.717 650.33 563.181 656.597 582.621 644.897C585.307 643.273 586.536 640.875 586.703 637.977C566.52 647.203 541.176 634.274 525.5 609.522Z" fill="#B2CCB0"/>
</g>
</g>
<g id="Group_17">
<path id="Vector_84" d="M537.625 471.196C528.945 472.182 523.011 476.932 520.795 487.707C519.46 494.141 523.497 499.407 521.873 503.05C520.81 505.447 519.596 505.371 520.613 506.343C521.994 507.633 524.134 507.284 524.134 507.284C524.134 507.284 529.521 518.21 537.64 518.483C544.94 518.726 553.15 510.728 556.094 502.306C558.279 496.114 557.52 468.935 537.625 471.196Z" fill="#FCB29A"/>
</g>
<path id="Vector_85" opacity="0.49" d="M478.804 570.232L468.242 569.656C468.242 569.656 504.679 590.856 514.346 591.326C517.426 591.478 523.314 580.537 523.314 580.537L478.804 570.232Z" fill="#FCB29A"/>
<g id="Group_18">
<path id="Vector_86" d="M498.745 603.664C498.123 602.435 497.501 601.175 496.878 599.901C497.516 601.191 498.123 602.435 498.745 603.664Z" fill="#FCB29A"/>
<path id="Vector_87" d="M500.657 607.398C500.126 606.381 499.595 605.349 499.064 604.287C499.595 605.349 500.126 606.381 500.657 607.398Z" fill="#FCB29A"/>
<path id="Vector_88" d="M506.318 617.778C505.787 616.867 505.255 615.926 504.694 614.94C505.255 615.926 505.787 616.867 506.318 617.778Z" fill="#FCB29A"/>
<path id="Vector_89" d="M502.691 611.252C502.129 610.205 501.568 609.143 500.991 608.05C501.568 609.143 502.129 610.22 502.691 611.252Z" fill="#FCB29A"/>
<path id="Vector_90" d="M504.664 614.879C504.057 613.802 503.449 612.679 502.812 611.51C503.449 612.663 504.057 613.802 504.664 614.879Z" fill="#FCB29A"/>
<path id="Vector_91" d="M545.835 580.855L545.849 580.87C545.835 580.855 545.835 580.855 545.835 580.855Z" fill="#FCB29A"/>
<path id="Vector_92" d="M509.474 622.953C509.125 622.421 508.776 621.86 508.412 621.283C508.776 621.86 509.125 622.421 509.474 622.953Z" fill="#FCB29A"/>
<path id="Vector_93" d="M509.899 623.62C510.37 624.334 510.825 625.016 511.25 625.624C513.435 628.719 515.878 631.512 518.534 634.031C515.878 631.512 513.435 628.719 511.25 625.624C510.825 625.016 510.37 624.334 509.899 623.62Z" fill="#FCB29A"/>
<path id="Vector_94" d="M507.911 620.464C507.532 619.842 507.152 619.204 506.758 618.536C507.152 619.204 507.547 619.842 507.911 620.464Z" fill="#FCB29A"/>
<path id="Vector_95" d="M506.773 618.536C506.621 618.278 506.485 618.036 506.333 617.778C506.469 618.036 506.621 618.278 506.773 618.536Z" fill="#B2CCB0"/>
<path id="Vector_96" d="M504.693 614.938C504.678 614.923 504.678 614.894 504.664 614.879C504.678 614.894 504.693 614.909 504.693 614.938Z" fill="#B2CCB0"/>
<path id="Vector_97" d="M545.85 580.87C546.503 581.523 546.867 581.887 546.867 581.887C546.867 581.887 546.488 581.508 545.85 580.87Z" fill="#B2CCB0"/>
<path id="Vector_98" d="M499.064 604.287C498.957 604.074 498.851 603.877 498.745 603.664C498.851 603.877 498.957 604.074 499.064 604.287Z" fill="#B2CCB0"/>
<path id="Vector_99" d="M500.991 608.05C500.885 607.838 500.763 607.61 500.657 607.398C500.763 607.61 500.885 607.838 500.991 608.05Z" fill="#B2CCB0"/>
<path id="Vector_100" d="M509.899 623.62C509.763 623.408 509.611 623.18 509.474 622.953C509.611 623.18 509.763 623.408 509.899 623.62Z" fill="#B2CCB0"/>
<path id="Vector_101" d="M508.412 621.283C508.245 621.01 508.078 620.737 507.911 620.464C508.078 620.737 508.245 621.01 508.412 621.283Z" fill="#B2CCB0"/>
<path id="Vector_102" d="M502.827 611.509C502.781 611.434 502.736 611.343 502.691 611.252C502.736 611.343 502.781 611.418 502.827 611.509Z" fill="#B2CCB0"/>
<path id="Vector_103" d="M496.878 599.886C496.878 599.886 496.878 599.9 496.893 599.9C496.878 599.9 496.878 599.9 496.878 599.886Z" fill="#B2CCB0"/>
<path id="Vector_104" d="M484.935 572.6C484.844 572.372 484.753 572.129 484.662 571.902L484.935 572.6Z" fill="#FCB29A"/>
<path id="Vector_105" d="M538.247 573.328C538.429 573.51 538.627 573.708 538.809 573.874C538.627 573.708 538.429 573.51 538.247 573.328Z" fill="#FCB29A"/>
<path id="Vector_106" d="M538.247 573.328C538.429 573.51 538.627 573.708 538.809 573.874C538.627 573.708 538.429 573.51 538.247 573.328Z" fill="#FDB128"/>
<path id="Vector_107" d="M540.25 575.316C540.387 575.453 540.524 575.574 540.645 575.711C540.508 575.574 540.387 575.453 540.25 575.316Z" fill="#FCB29A"/>
<path id="Vector_108" d="M540.25 575.316C540.387 575.453 540.524 575.574 540.645 575.711C540.508 575.574 540.387 575.453 540.25 575.316Z" fill="#FDB128"/>
<path id="Vector_109" d="M542.861 577.896C542.951 577.987 543.042 578.062 543.118 578.153C543.027 578.077 542.936 577.987 542.861 577.896Z" fill="#FCB29A"/>
<path id="Vector_110" d="M542.861 577.896C542.951 577.987 543.042 578.062 543.118 578.153C543.027 578.077 542.936 577.987 542.861 577.896Z" fill="#FDB128"/>
<path id="Vector_111" d="M541.601 576.652C541.677 576.727 541.752 576.803 541.843 576.878C541.767 576.818 541.692 576.742 541.601 576.652Z" fill="#FCB29A"/>
<path id="Vector_112" d="M541.601 576.652C541.677 576.727 541.752 576.803 541.843 576.878C541.767 576.818 541.692 576.742 541.601 576.652Z" fill="#FDB128"/>
<path id="Vector_113" d="M536.654 571.765C536.927 572.023 537.185 572.296 537.443 572.554C537.185 572.281 536.927 572.023 536.654 571.765Z" fill="#FCB29A"/>
<path id="Vector_114" d="M536.654 571.765C536.927 572.023 537.185 572.296 537.443 572.554C537.185 572.281 536.927 572.023 536.654 571.765Z" fill="#FDB128"/>
<path id="Vector_115" d="M533.361 568.502C533.528 568.654 533.679 568.821 533.831 568.973C533.664 568.806 533.513 568.654 533.361 568.502Z" fill="#FCB29A"/>
<path id="Vector_116" d="M533.361 568.502C533.528 568.654 533.679 568.821 533.831 568.973C533.664 568.806 533.513 568.654 533.361 568.502Z" fill="#FDB128"/>
<path id="Vector_117" d="M535.106 570.232C535.288 570.414 535.47 570.596 535.652 570.779C535.485 570.596 535.303 570.414 535.106 570.232Z" fill="#FCB29A"/>
<path id="Vector_118" d="M535.106 570.232C535.288 570.414 535.47 570.596 535.652 570.779C535.485 570.596 535.303 570.414 535.106 570.232Z" fill="#FDB128"/>
<path id="Vector_119" d="M543.285 578.32C543.225 578.275 543.179 578.214 543.119 578.154C543.179 578.214 543.225 578.26 543.285 578.32Z" fill="#B2CCB0"/>
<path id="Vector_120" d="M543.285 578.32C543.225 578.275 543.179 578.214 543.119 578.154C543.179 578.214 543.225 578.26 543.285 578.32Z" fill="#FDB128"/>
<path id="Vector_121" d="M541.844 576.894C542.193 577.243 542.542 577.577 542.861 577.896C542.527 577.577 542.193 577.243 541.844 576.894Z" fill="#B2CCB0"/>
<path id="Vector_122" d="M541.844 576.894C542.193 577.243 542.542 577.577 542.861 577.896C542.527 577.577 542.193 577.243 541.844 576.894Z" fill="#FDB128"/>
<path id="Vector_123" d="M535.667 570.779C536.001 571.112 536.335 571.431 536.669 571.765C536.335 571.431 536.001 571.112 535.667 570.779Z" fill="#B2CCB0"/>
<path id="Vector_124" d="M535.667 570.779C536.001 571.112 536.335 571.431 536.669 571.765C536.335 571.431 536.001 571.112 535.667 570.779Z" fill="#FDB128"/>
<path id="Vector_125" d="M537.458 572.539C537.731 572.812 537.989 573.07 538.247 573.328C537.989 573.07 537.731 572.812 537.458 572.539Z" fill="#B2CCB0"/>
<path id="Vector_126" d="M537.458 572.539C537.731 572.812 537.989 573.07 538.247 573.328C537.989 573.07 537.731 572.812 537.458 572.539Z" fill="#FDB128"/>
<path id="Vector_127" d="M533.831 568.958C534.271 569.382 534.696 569.807 535.106 570.217C534.696 569.807 534.256 569.398 533.831 568.958Z" fill="#B2CCB0"/>
<path id="Vector_128" d="M533.831 568.958C534.271 569.382 534.696 569.807 535.106 570.217C534.696 569.807 534.256 569.398 533.831 568.958Z" fill="#FDB128"/>
<path id="Vector_129" d="M531.6 566.757C532.192 567.349 532.784 567.926 533.361 568.487C532.784 567.926 532.192 567.349 531.6 566.757Z" fill="#B2CCB0"/>
<path id="Vector_130" d="M531.6 566.757C532.192 567.349 532.784 567.926 533.361 568.487C532.784 567.926 532.192 567.349 531.6 566.757Z" fill="#FDB128"/>
<path id="Vector_131" d="M540.645 575.711C540.979 576.029 541.298 576.363 541.601 576.667C541.298 576.348 540.979 576.029 540.645 575.711Z" fill="#B2CCB0"/>
<path id="Vector_132" d="M540.645 575.711C540.979 576.029 541.298 576.363 541.601 576.667C541.298 576.348 540.979 576.029 540.645 575.711Z" fill="#FDB128"/>
<path id="Vector_133" d="M538.809 573.89C539.31 574.39 539.795 574.861 540.25 575.316C539.78 574.861 539.31 574.375 538.809 573.89Z" fill="#B2CCB0"/>
<path id="Vector_134" d="M538.809 573.89C539.31 574.39 539.795 574.861 540.25 575.316C539.78 574.861 539.31 574.375 538.809 573.89Z" fill="#FDB128"/>
<path id="Vector_135" d="M542.861 577.896C542.542 577.577 542.208 577.243 541.844 576.894C541.768 576.819 541.692 576.743 541.601 576.667C541.298 576.363 540.964 576.045 540.645 575.711C540.508 575.574 540.387 575.453 540.25 575.316C539.78 574.861 539.31 574.375 538.809 573.89C538.627 573.707 538.445 573.525 538.247 573.343C537.989 573.085 537.716 572.827 537.458 572.554C537.2 572.296 536.927 572.038 536.669 571.765C536.335 571.446 536.016 571.112 535.667 570.779C535.485 570.596 535.303 570.414 535.121 570.232C534.696 569.823 534.271 569.398 533.846 568.973C533.695 568.821 533.528 568.669 533.376 568.502C532.799 567.926 532.207 567.349 531.616 566.772C529.703 573.616 525.136 583.465 514.361 591.326C516.759 591.721 518.989 591.858 520.962 591.63C527.351 590.871 535.576 585.135 543.301 578.336C543.24 578.275 543.195 578.23 543.134 578.169C543.028 578.078 542.937 577.987 542.861 577.896Z" fill="#B2CCB0"/>
<path id="Vector_136" d="M542.861 577.896C542.542 577.577 542.208 577.243 541.844 576.894C541.768 576.819 541.692 576.743 541.601 576.667C541.298 576.363 540.964 576.045 540.645 575.711C540.508 575.574 540.387 575.453 540.25 575.316C539.78 574.861 539.31 574.375 538.809 573.89C538.627 573.707 538.445 573.525 538.247 573.343C537.989 573.085 537.716 572.827 537.458 572.554C537.2 572.296 536.927 572.038 536.669 571.765C536.335 571.446 536.016 571.112 535.667 570.779C535.485 570.596 535.303 570.414 535.121 570.232C534.696 569.823 534.271 569.398 533.846 568.973C533.695 568.821 533.528 568.669 533.376 568.502C532.799 567.926 532.207 567.349 531.616 566.772C529.703 573.616 525.136 583.465 514.361 591.326C516.759 591.721 518.989 591.858 520.962 591.63C527.351 590.871 535.576 585.135 543.301 578.336C543.24 578.275 543.195 578.23 543.134 578.169C543.028 578.078 542.937 577.987 542.861 577.896Z" fill="#B2CCB0"/>
<path id="Vector_137" d="M484.313 570.961C484.434 571.279 484.541 571.583 484.662 571.902L484.313 570.961Z" fill="#FCB29A"/>
<path id="Vector_138" d="M484.313 570.961C484.434 571.279 484.541 571.583 484.662 571.902L484.313 570.961Z" fill="#FDB128"/>
</g>
<path id="Vector_139" d="M544.864 523.006C544.864 523.006 556.655 520.547 562.195 511.715C562.195 511.715 575.352 516.192 583.167 535.859C590.983 555.527 594.762 592.07 594.762 603.421C594.762 607.838 594.337 613.453 593.821 618.658C592.865 628.37 589.086 637.597 583.046 645.261L581.65 647.036C581.65 647.036 567.779 648.554 558.962 634.425C550.145 620.312 538.794 577.714 529.719 571.158C520.643 564.602 524.923 565.361 524.923 565.361L544.864 523.006Z" fill="#FDB128"/>
<path id="Vector_140" d="M537.504 583.116C552.118 571.841 567.005 553.478 567.005 553.478L551.435 555.132L528.929 561.051" fill="#FDB128"/>
<g id="Group_19">
<path id="Vector_141" d="M478.804 559.503L471.611 553.463C471.611 553.463 470.336 551.096 471.611 548.288C471.611 548.288 471.14 546.027 468.242 546.725C465.343 547.408 459.425 553.873 459.698 560.201C459.971 566.529 470.564 570.505 470.564 570.505L478.804 559.503Z" fill="#FCB29A"/>
<g id="Group_20">
<path id="Vector_142" d="M545.441 529.637L517.988 566.878L530.842 583.511C530.842 583.511 565.624 562.842 572.681 549.229C579.146 536.755 564.441 517.922 550.676 524.963C548.582 526.041 546.852 527.725 545.441 529.637Z" fill="#FDB128"/>
<path id="Vector_143" d="M539.917 537.134C539.917 537.134 520.264 565.604 509.929 562.326C499.595 559.048 471.611 553.478 471.611 553.478L468.242 569.656C468.242 569.656 505.893 589.824 517.988 588.352C527.002 587.259 542.861 576.212 549.766 571.021C556.655 565.816 539.917 537.134 539.917 537.134Z" fill="#FDB128"/>
</g>
</g>
<path id="Vector_144" d="M535.728 486.417C531.737 486.796 518.989 490.363 516.91 480.149C514.831 469.951 528.262 466.006 533.71 467.857C539.173 469.709 546.973 459.951 556.746 467.417C566.793 475.081 559.372 484.156 567.688 487.024C575.746 489.801 578.402 498.694 574.639 504.962C571.437 510.304 582.97 508.756 583.972 520.577C585.17 534.843 567.369 537.893 561.557 534.661C555.745 531.443 552.679 522.565 555.457 514.477C558.643 505.189 545.516 503.459 546.26 496.797C547.155 488.86 541.723 485.84 535.728 486.417Z" fill="#060D28"/>
<path id="Vector_145" d="M543.088 490.272C543.088 490.272 543.119 484.687 548.506 486.857C551.723 488.147 553.453 498.193 545.547 497.495" fill="#FCB29A"/>
</g>
<g id="Group_21">
<g id="Group_22">
<path id="Vector_146" d="M603.806 452.59H406.158V460.543H603.806V452.59Z" fill="#F0F3FF"/>
</g>
<g id="Group_23">
<path id="Vector_147" d="M603.806 456.566H406.158V460.543H603.806V456.566Z" fill="#DFE4FB"/>
</g>
</g>
<path id="Vector_148" d="M614.368 672.562H406.613C402.546 672.562 399.238 669.269 399.238 665.186V661.575C399.238 657.508 402.531 654.199 406.613 654.199H614.368C618.436 654.199 621.744 657.492 621.744 661.575V665.186C621.744 669.269 618.436 672.562 614.368 672.562Z" fill="#CCA5A3"/>
<g id="Group_24">
<path id="Vector_149" d="M596.552 411.191V652.409H412.38V411.191H596.552ZM601.94 405.804H406.993V657.811H601.94V405.804V405.804Z" fill="#DFE4FB"/>
</g>
<g id="Group_25">
<path id="Vector_150" d="M596.552 411.191V652.409H412.38V411.191H596.552ZM601.94 405.804H406.993V657.811H601.94V405.804V405.804Z" fill="#DFE4FB"/>
</g>
<g id="Group_26">
<path id="Vector_151" d="M601.94 405.804V657.811H406.993V405.804H601.94ZM603.746 403.998H601.955H406.993H405.202V405.789V657.796V659.587H406.993H601.94H603.73V657.796V405.804V403.998H603.746Z" fill="white"/>
</g>
<g id="Group_27">
<path id="Vector_152" d="M596.552 411.191V652.409H412.38V411.191H596.552ZM600.149 407.595H596.552H412.38H408.784V411.191V652.409V656.005H412.38H596.552H600.149V652.409V411.191V407.595Z" fill="#DFE4FB"/>
</g>
<g id="Group_28">
<path id="Vector_153" d="M613.048 660.664H397.144C395.323 660.664 393.851 659.192 393.851 657.371V652.12C393.851 650.299 395.323 648.827 397.144 648.827H613.048C614.869 648.827 616.341 650.299 616.341 652.12V657.371C616.341 659.192 614.869 660.664 613.048 660.664Z" fill="#F0F3FF"/>
</g>
<g id="Group_29">
<path id="Vector_154" d="M613.048 656.901H397.144C395.323 656.901 393.851 655.429 393.851 653.607V657.371C393.851 659.192 395.323 660.664 397.144 660.664H613.048C614.869 660.664 616.341 659.192 616.341 657.371V653.607C616.341 655.429 614.869 656.901 613.048 656.901Z" fill="#DFE4FB"/>
</g>
</g>
<g id="Group_30">
<g id="Group_31">
<path id="Vector_155" d="M232.017 45.9278H37.0706V297.935H232.017V45.9278Z" fill="#34468F"/>
<path id="Vector_156" opacity="0.43" d="M37.0706 45.9278V91.4851C120.992 113.232 182.954 189.49 182.954 280.21V297.935H232.017V45.9278H37.0706Z" fill="#34468F"/>
<g id="Group_32">
<path id="Vector_157" d="M138.05 44.137H36.2359V291.455H138.05V44.137Z" fill="#F27367"/>
<path id="Vector_158" d="M56.9507 291.273H44.4004L50.1975 41.026H53.0961L56.9507 291.273Z" fill="#F27367"/>
<path id="Vector_159" d="M80.215 291.273H67.6799L73.4618 41.026H76.3604L80.215 291.273Z" fill="#F27367"/>
<path id="Vector_160" d="M103.495 291.273H90.9442L96.7413 41.026H99.6399L103.495 291.273Z" fill="#F27367"/>
<path id="Vector_161" d="M126.759 291.273H114.224L120.006 41.026H122.904L126.759 291.273Z" fill="#F27367"/>
</g>
<path id="Vector_162" opacity="0.43" d="M48.422 57.7648H227.92V47.4757H38.7551V299.483H48.422V57.7648Z" fill="#34468F"/>
<path id="Vector_163" d="M230.105 95.2184H41.0921V100.773H230.105V95.2184Z" fill="#F27367"/>
</g>
<g id="Group_33">
<g id="Group_34">
<path id="Vector_164" d="M233.884 88.875H36.2359V96.827H233.884V88.875Z" fill="#F0F3FF"/>
</g>
<g id="Group_35">
<path id="Vector_165" d="M233.884 92.851H36.2359V96.827H233.884V92.851Z" fill="#DFE4FB"/>
</g>
</g>
<path id="Vector_166" d="M244.431 308.846H36.6912C32.6241 308.846 29.3158 305.553 29.3158 301.471V297.859C29.3158 293.792 32.6089 290.484 36.6912 290.484H244.446C248.513 290.484 251.822 293.777 251.822 297.859V301.471C251.806 305.538 248.513 308.846 244.431 308.846Z" fill="#CCA5A3"/>
<g id="Group_36">
<path id="Vector_167" d="M226.615 47.4757V288.693H42.4579V47.4757H226.615ZM232.017 42.0732H37.0706V294.08H232.017V42.0732Z" fill="#DFE4FB"/>
</g>
<g id="Group_37">
<path id="Vector_168" d="M226.615 47.4757V288.693H42.4579V47.4757H226.615ZM232.017 42.0732H37.0706V294.08H232.017V42.0732Z" fill="#DFE4FB"/>
</g>
<g id="Group_38">
<path id="Vector_169" d="M232.017 42.0732V294.08H37.0706V42.0732H232.017ZM233.808 40.2824H232.017H37.0706H35.2799V42.0732V294.08V295.871H37.0706H232.017H233.808V294.08V42.0732V40.2824Z" fill="white"/>
</g>
<g id="Group_39">
<path id="Vector_170" d="M226.615 47.4757V288.693H42.4579V47.4757H226.615ZM230.211 43.8791H226.615H42.4579H38.8613V47.4757V288.693V292.29H42.4579H226.615H230.211V288.693V47.4757V43.8791Z" fill="#DFE4FB"/>
</g>
<g id="Group_40">
<path id="Vector_171" d="M198.707 160.14C198.707 160.14 189.662 173.525 190.269 181.811C190.876 190.082 178.644 186.47 178.644 186.47L171.178 185.074L168.264 169.094C168.264 169.094 179.267 156.012 180.572 143.325C181.907 130.623 198.707 160.14 198.707 160.14Z" fill="#FCB29A"/>
<path id="Vector_172" d="M189.389 150.473L182.742 157.499C182.742 157.499 183.789 168.395 192.029 172.979L196.051 163.873L189.389 150.473Z" fill="#FCB29A"/>
<g id="Group_41">
<path id="Vector_173" d="M203.108 117.496C212.759 118.892 219.209 124.401 221.318 136.481C222.578 143.705 217.904 149.441 219.588 153.554C220.696 156.27 222.047 156.225 220.878 157.272C219.3 158.668 216.918 158.213 216.918 158.213C216.918 158.213 210.513 169.655 201.469 170.247C191.62 170.884 182.787 161.673 180.799 151.808C179.343 144.63 181.012 114.294 203.108 117.496Z" fill="#FCB29A"/>
</g>
<path id="Vector_174" d="M146.26 164.92C153.058 164.07 168.78 162.978 171.861 164.177C171.861 164.177 179.464 175.285 191.604 174.147C191.604 174.147 198.115 176.348 207.008 177.804C212.942 178.776 198.874 195.605 198.206 228.643C197.417 267.766 195.656 286.735 195.656 286.735L109.216 284.672C109.216 284.672 117.79 240.374 139.825 171.491C140.812 168.441 143.088 165.315 146.26 164.92Z" fill="#B2CCB0"/>
<path id="Vector_175" d="M259.576 160.474C243.247 168.274 249.378 163.737 252.216 160.595C262.247 149.502 268.864 137.862 268.272 135.495C267.331 131.716 270.639 122.762 272.46 118.862C273.007 117.709 274.357 114.992 274.084 112.291C273.841 109.969 275.025 108.33 276.254 110.515C277.484 112.701 277.423 114.34 276.664 118.179C276.3 120.046 276.528 120.349 276.983 120.516C277.787 120.835 279.775 117.056 281.414 112.291C283.114 107.389 284.222 104.582 285.876 103.611C287.166 102.852 288.213 102.29 287.317 105.568C286.422 108.861 282.78 114.916 283.918 116.039C285.056 117.162 287.044 112.261 287.97 109.286C288.896 106.312 288.85 102.427 290.747 102.563C292.052 102.67 292.599 104.127 291.764 108.148C290.929 112.17 286.665 118.058 287.788 118.65C288.926 119.257 292.083 112.276 292.553 110.409C293.039 108.482 294.723 108.057 294.678 111.487C294.632 114.916 292.887 116.889 291.202 120.152C289.518 123.415 288.031 124.644 288.759 125.372C289.457 126.086 291.081 124.599 292.219 121.472C293.357 118.331 294.283 115.523 295.27 116.935C296.271 118.346 295.725 122.58 292.766 127.71C289.958 132.581 285.542 140.639 281.536 141.535C281.126 141.626 280.762 141.823 280.579 142.187C279.881 143.507 277.909 147.377 273.538 156.877C254.584 198.14 259.364 172.402 254.857 165.148L259.576 160.474Z" fill="#F9AF9A"/>
<path id="Vector_176" d="M190.739 183.799L202.379 176.97L236.722 176.241L264.691 137.68L283.159 146.451C283.159 146.451 261.064 191.584 246.768 202.495C234.81 211.616 189.374 220.418 189.374 220.418L190.739 183.799Z" fill="#B2CCB0"/>
<path id="Vector_177" d="M193.395 142.733C193.395 142.733 195.398 132.869 201.18 133.233C203.942 133.4 211.697 136.876 220.378 136.299C225.446 135.965 229.741 132.384 231.471 127.603L231.683 126.996C231.683 126.996 228.997 128.028 224.263 125.949C219.528 123.885 217.176 117.375 210.68 117.845C204.17 118.316 199.845 109.833 192.181 114.674C184.882 119.287 188.266 116.13 180.921 117.663C170.252 119.879 167.824 140.639 178.614 142.081C184.684 142.885 193.395 142.733 193.395 142.733Z" fill="#060D28"/>
<path id="Vector_178" d="M183.683 127.77L182.423 117.891C182.423 117.891 168.917 116.965 170.92 133.719C170.92 133.719 173.105 138.105 168.477 143.219C163.848 148.333 162.467 151.581 165.32 156.786C168.78 163.099 174.896 161.582 177.688 160.474C185.155 157.469 190.876 148.758 191.635 143.781C192.849 135.662 193.395 136.967 193.395 136.967L183.683 127.77Z" fill="#060D28"/>
<path id="Vector_179" opacity="0.53" d="M126.774 213.801L141.434 190.947C141.434 190.947 116.713 272.941 142.268 286.735L109.231 284.672L126.774 213.801Z" fill="#B2CCB0"/>
<path id="Vector_180" opacity="0.53" d="M201.362 195.788L198.889 218.399C198.889 218.399 228.269 212.162 237.526 207.321C237.526 207.321 204.261 215.698 201.362 195.788Z" fill="#B2CCB0"/>
<path id="Vector_181" d="M196.172 138.651C196.172 138.651 196.127 132.11 189.829 134.645C186.05 136.162 184.047 147.924 193.304 147.104" fill="#FCB29A"/>
</g>
<g id="Group_42">
<path id="Vector_182" d="M243.126 296.933H27.2215C25.4005 296.933 23.9284 295.461 23.9284 293.64V288.39C23.9284 286.568 25.4005 285.096 27.2215 285.096H243.126C244.947 285.096 246.419 286.568 246.419 288.39V293.64C246.419 295.461 244.947 296.933 243.126 296.933Z" fill="#F0F3FF"/>
</g>
<g id="Group_43">
<path id="Vector_183" d="M243.126 293.17H27.2215C25.4005 293.17 23.9284 291.698 23.9284 289.877V293.64C23.9284 295.461 25.4005 296.933 27.2215 296.933H243.126C244.947 296.933 246.419 295.461 246.419 293.64V289.877C246.419 291.698 244.947 293.17 243.126 293.17Z" fill="#DFE4FB"/>
</g>
<g id="Group_44">
<path id="Vector_184" d="M91.5057 277.782C91.5057 277.782 88.1823 286.477 81.6112 290.62C75.0553 294.748 62.0649 295.097 63.4611 293.109C64.8573 291.121 73.7957 288.814 69.243 288.086C64.6903 287.342 59.7127 286.993 59.7127 286.993C59.7127 286.993 42.5035 292.806 42.6552 290.727C42.807 288.648 55.6912 278.768 59.5609 277.372C62.1105 276.446 68.7422 276.719 72.9762 277.023C75.2981 277.19 77.5138 276.052 78.7733 274.094L81.5505 260.815C83.2805 252.529 93.6607 249.692 99.3667 255.944L91.5057 277.782Z" fill="#FCB29A"/>
<path id="Vector_185" d="M145.334 165.072C125.742 170.262 94.5257 195.105 85.6631 219.795L72.9459 274.58L95.2997 281.576L112.782 233.742L155.82 192.403C155.835 192.419 152.406 163.205 145.334 165.072Z" fill="#B2CCB0"/>
</g>
</g>
<g id="Group_45">
<g id="Group_46">
<g id="Group_47">
<path id="Vector_186" d="M232.017 409.658H37.0706V661.666H232.017V409.658Z" fill="#34468F"/>
<path id="Vector_187" opacity="0.43" d="M37.0706 409.658V455.216C120.992 476.963 182.954 553.22 182.954 643.941V661.666H232.017V409.658H37.0706Z" fill="#34468F"/>
<path id="Vector_188" opacity="0.43" d="M48.422 421.48H227.92V411.191H38.7551V663.214H48.422V421.48Z" fill="#34468F"/>
<path id="Vector_189" d="M230.105 458.949H41.0921V464.503H230.105V458.949Z" fill="#F27367"/>
</g>
<g id="Group_48">
<g id="Group_49">
<path id="Vector_190" d="M233.884 452.59H36.2359V460.543H233.884V452.59Z" fill="#F0F3FF"/>
</g>
<g id="Group_50">
<path id="Vector_191" d="M233.884 456.566H36.2359V460.543H233.884V456.566Z" fill="#DFE4FB"/>
</g>
</g>
<path id="Vector_192" d="M244.431 672.562H36.6912C32.6241 672.562 29.3158 669.269 29.3158 665.186V661.575C29.3158 657.508 32.6089 654.199 36.6912 654.199H244.446C248.513 654.199 251.822 657.492 251.822 661.575V665.186C251.806 669.269 248.513 672.562 244.431 672.562Z" fill="#CCA5A3"/>
<g id="Group_51">
<path id="Vector_193" d="M226.615 411.191V652.409H42.4579V411.191H226.615ZM232.017 405.804H37.0706V657.811H232.017V405.804Z" fill="#DFE4FB"/>
</g>
<g id="Group_52">
<path id="Vector_194" d="M226.615 411.191V652.409H42.4579V411.191H226.615ZM232.017 405.804H37.0706V657.811H232.017V405.804Z" fill="#DFE4FB"/>
</g>
<g id="Group_53">
<path id="Vector_195" d="M232.017 405.804V657.811H37.0706V405.804H232.017ZM233.808 403.998H232.017H37.0706H35.2799V405.789V657.796V659.587H37.0706H232.017H233.808V657.796V405.804V403.998Z" fill="white"/>
</g>
<g id="Group_54">
<path id="Vector_196" d="M226.615 411.191V652.409H42.4579V411.191H226.615ZM230.211 407.595H226.615H42.4579H38.8613V411.191V652.409V656.005H42.4579H226.615H230.211V652.409V411.191V407.595Z" fill="#DFE4FB"/>
</g>
<g id="Group_55">
<path id="Vector_197" d="M243.126 660.664H27.2215C25.4005 660.664 23.9284 659.192 23.9284 657.371V652.12C23.9284 650.299 25.4005 648.827 27.2215 648.827H243.126C244.947 648.827 246.419 650.299 246.419 652.12V657.371C246.419 659.192 244.947 660.664 243.126 660.664Z" fill="#F0F3FF"/>
</g>
<g id="Group_56">
<path id="Vector_198" d="M243.126 656.901H27.2215C25.4005 656.901 23.9284 655.429 23.9284 653.607V657.371C23.9284 659.192 25.4005 660.664 27.2215 660.664H243.126C244.947 660.664 246.419 659.192 246.419 657.371V653.607C246.419 655.429 244.947 656.901 243.126 656.901Z" fill="#DFE4FB"/>
</g>
</g>
<g id="Group_57">
<path id="Vector_199" d="M166.883 537.058L184.168 533.583C184.168 533.583 179.039 553.463 185.671 563.13C193.668 574.785 170.677 570.733 170.677 570.733L160.13 569.276C160.13 569.276 166.792 554.419 161.466 541.338C158.658 534.463 166.883 537.058 166.883 537.058Z" fill="#FEC8B4"/>
<path id="Vector_200" d="M171.041 546.376L177.188 548.637C177.188 548.637 172.771 564.071 162.528 562.796L163.621 553.144L171.041 546.376Z" fill="#FEC8B4"/>
<path id="Vector_201" d="M146.138 537.483C146.077 537.832 146.047 538.181 146.017 538.53C145.516 544.722 148.081 550.261 151.829 554.844C160.904 565.922 178.22 553.949 180.754 537.938C183.091 523.081 179.191 513.415 164.698 511.123C158.066 510.076 149.932 512.853 146.836 523.886C146.169 526.253 146.882 528.666 146.791 531.064C146.7 533.249 146.472 535.343 146.138 537.483Z" fill="#FEC8B4"/>
<path id="Vector_202" d="M196.552 566.15C192.515 564.678 187.947 563.069 184.806 562.174C184.806 562.174 175.412 567 162.528 562.796C162.528 562.796 147.716 567.197 142.268 575.377C134.453 587.092 128.292 647.507 128.292 647.507L213.594 653.167C213.594 653.167 225.34 610.949 211.712 580.309C208.783 573.723 203.32 568.624 196.552 566.15Z" fill="#7EB1F3"/>
<path id="Vector_203" opacity="0.72" d="M149.72 591.615L142.481 648.281L132.146 648.038C132.146 648.053 143.164 624.789 149.72 591.615Z" fill="#7EB1F3"/>
<g id="Group_58">
<path id="Vector_204" d="M138.49 635.366C138.49 635.366 139.871 632.938 141.024 632.938C142.177 632.938 150.888 635.366 150.888 635.366L149.538 638.341C149.538 638.341 146.093 638.28 145.819 638.341C145.531 638.386 138.49 635.366 138.49 635.366Z" fill="#FEC8B4"/>
<g id="Group_59">
<g id="Group_60">
<path id="Vector_205" d="M125.924 652.727L125.681 650.238C125.742 650.238 131.858 649.601 135.379 646.93C137.063 645.64 138.201 640.678 138.429 633.636C138.444 633.242 138.308 632.877 138.034 632.589C137.776 632.316 137.412 632.164 137.033 632.164H130.158V629.66H137.033C138.095 629.66 139.097 630.085 139.825 630.844C140.569 631.618 140.963 632.635 140.933 633.697C140.751 639.373 139.901 646.611 136.911 648.903C132.814 652.029 126.212 652.712 125.924 652.727Z" fill="#FDB128"/>
</g>
<path id="Vector_206" d="M138.49 631.466C137.746 630.753 136.76 630.692 135.697 630.692H130.143V632.164H137.018C137.397 632.164 137.761 632.316 138.019 632.589C138.292 632.862 138.429 633.242 138.414 633.636C138.186 640.678 137.048 645.64 135.363 646.93C131.858 649.616 125.727 650.238 125.666 650.238L125.803 651.665C127.958 651.346 132.465 650.451 135.546 648.266C138.55 646.141 139.385 639.403 139.567 634.122C139.628 633.135 139.233 632.195 138.49 631.466Z" fill="#FDB128"/>
<g id="Group_61">
<g id="Group_62">
<path id="Vector_207" d="M132.738 626.913H120.673H114.421H102.356C102.356 626.913 101.491 646.687 108.791 653.137H117.532H117.562H126.304C133.603 646.687 132.738 626.913 132.738 626.913Z" fill="#FDB128"/>
<path id="Vector_208" opacity="0.47" d="M129.217 648.842H120.476H120.446C113.647 648.842 107.744 644.092 106.408 637.43C105.634 633.606 105.376 629.751 105.285 626.913H102.356C102.356 626.913 101.491 646.687 108.791 653.137H117.532H117.562H126.304C127.609 651.984 128.641 650.39 129.475 648.569C129.384 648.66 129.308 648.766 129.217 648.842Z" fill="#FDB128"/>
</g>
<path id="Vector_209" d="M132.767 626.913C132.767 627.869 125.953 628.643 117.561 628.643C109.169 628.643 102.355 627.869 102.355 626.913C102.355 625.957 109.169 625.183 117.561 625.183C125.953 625.183 132.767 625.957 132.767 626.913Z" fill="#FDB128"/>
<path id="Vector_210" d="M132.767 626.913C132.767 627.869 125.953 628.643 117.561 628.643C109.169 628.643 102.355 627.869 102.355 626.913C102.355 625.957 109.169 625.183 117.561 625.183C125.953 625.183 132.767 625.957 132.767 626.913Z" fill="#FDB128"/>
<path id="Vector_211" d="M117.911 626.913C112.16 626.913 107.228 627.278 104.648 627.824C107.319 628.325 112.084 628.659 117.578 628.659C123.329 628.659 128.261 628.294 130.856 627.748C128.155 627.247 123.39 626.913 117.911 626.913Z" fill="#161213"/>
</g>
</g>
<path id="Vector_212" d="M150.114 635.442H145.85C145.85 635.442 137.822 634.228 135.272 634.972C132.723 635.715 132.799 637.4 132.859 638.447C132.935 639.494 133.36 640.086 132.829 641.421C132.298 642.742 132.101 643.136 132.829 644.032C133.558 644.942 133.907 645.215 133.907 646.687C133.907 648.159 135.03 649.267 136.699 649.753C138.368 650.238 142.845 650.496 144.863 650.193C146.882 649.889 151.844 648.493 151.844 648.493L150.114 635.442Z" fill="#FEC8B4"/>
</g>
<path id="Vector_213" opacity="0.72" d="M208.328 624.986L194.731 600.31C194.731 600.31 196.567 620.266 193.486 623.104C190.406 625.942 155.547 630.571 149.264 632.908C144.363 634.729 194.124 639.813 194.124 639.813L212.501 639.524L208.328 624.986Z" fill="#7EB1F3"/>
<path id="Vector_214" d="M194.624 575.726C194.624 575.726 192.879 563.828 202.273 569.079C208.965 572.827 216.189 581.356 221.485 598.763C226.797 616.169 226.159 647.021 218.071 652.075C208.374 658.13 150.539 649.92 150.539 649.92L149.249 632.908C149.249 632.908 181.513 627.627 201.529 629.979C201.545 629.979 190.33 589.293 194.624 575.726Z" fill="#7EB1F3"/>
<path id="Vector_215" d="M173.287 524.538C173.287 524.538 172.438 520.153 166.671 521.518C160.919 522.884 149.34 525.631 145.956 518.498C142.557 511.366 155.623 506.707 162.528 508.088C169.418 509.454 173.803 503.869 185.17 509.909C193.744 514.462 197.781 532.764 189.616 540.837C180.572 549.76 183.379 553.281 183.379 553.281C179.54 553.812 175.351 541.262 177.188 536.603C179.009 531.929 173.287 524.538 173.287 524.538Z" fill="#060D28"/>
<path id="Vector_216" d="M173.925 530.639C173.925 530.639 174.775 525.813 178.402 526.693C184.062 528.044 183.41 542.476 174.228 537.665" fill="#FEC8B4"/>
<path id="Vector_217" d="M180.739 513.324C180.739 513.324 182.013 503.444 191.574 503.444C197.826 503.444 209.223 522.535 191.574 526.587C173.925 530.639 180.739 513.324 180.739 513.324Z" fill="#060D28"/>
</g>
<g id="Group_63">
<path id="Vector_218" d="M95.1327 599.521C95.1327 599.521 93.3572 623.772 93.1599 633.135C93.0385 638.492 94.9658 641.998 96.5137 644.927C98.0161 647.78 96.0433 651.225 92.826 651.377L84.0697 651.817L68.7574 646.323L66.6783 614.196L81.2318 594.362L95.1327 599.521Z" fill="white"/>
<path id="Vector_219" d="M80.8676 581.72C80.8676 581.72 77.0433 587.791 65.3428 597.549C53.6424 607.306 31.2583 627.657 57.2846 652.06L90.6407 651.68C90.6407 651.68 90.0033 645.716 79.608 645.048C79.608 645.048 90.4889 638.432 89.0472 627.854C88.3795 622.953 85.8148 618.779 81.5049 616.366C79.35 615.167 74.5848 614.06 71.747 613.756L77.1192 598.398L80.8676 581.72Z" fill="#F4E4DF"/>
<path id="Vector_220" d="M51.3812 642.59C51.3812 642.59 51.3812 645.64 44.4611 649.692C37.541 653.759 27.5251 675.187 59.652 672.076C89.9426 669.147 116.834 674.079 114.163 694.187C114.163 694.187 127.351 672.198 109.914 660.801C87.5904 646.202 61.4427 661.772 55.8581 658.418C50.2734 655.064 56.981 646.611 56.981 646.611L51.3812 642.59Z" fill="white"/>
<path id="Vector_221" d="M77.0585 581.72C77.0585 581.72 73.2342 587.791 61.5338 597.549C49.8333 607.306 27.4492 627.657 53.4755 652.06L88.941 651.68C88.941 651.68 87.8787 646.141 77.4834 645.473C77.4834 645.473 92.3556 634.82 82.7949 620.008C82.7949 620.008 79.2741 614.94 72.3692 614.181L83.2502 600.508L77.0585 581.72Z" fill="white"/>
<path id="Vector_222" d="M81.2318 593.527L77.0585 580.886C77.0585 580.886 75.4347 583.465 71.0641 587.957C68.0441 591.068 67.6496 595.94 70.1687 599.461C74.6152 605.652 83.326 609.507 91.8093 605.076C97.0145 602.359 95.1175 598.702 95.1175 598.702L81.2318 593.527Z" fill="#F4E4DF"/>
<path id="Vector_223" d="M85.6024 574.315C85.6024 574.315 92.9778 573.92 96.3619 577.259L104.39 575.771L100.687 584.346C100.687 584.346 105.938 599.719 92.6591 603.118C79.3955 606.517 67.9682 599.051 67.9682 588.701C67.9682 577.926 78.6671 574.542 78.6671 574.542L81.5201 566.59L85.6024 574.315Z" fill="white"/>
</g>
</g>
<g id="Group_64">
<g id="Group_65">
<path id="Vector_224" d="M600.012 44.8807H405.066V296.888H600.012V44.8807Z" fill="#34468F"/>
<path id="Vector_225" opacity="0.43" d="M405.066 44.8807V90.4381C488.987 112.185 550.949 188.443 550.949 279.163V296.888H600.012V44.8807H405.066Z" fill="#34468F"/>
<path id="Vector_226" opacity="0.43" d="M416.417 56.7025H595.915V46.4134H406.75V298.436H416.417V56.7025Z" fill="#34468F"/>
<path id="Vector_227" d="M598.1 94.1713H409.087V99.7256H598.1V94.1713Z" fill="#F27367"/>
<g id="Group_66">
<path id="Vector_228" d="M495.725 108.785C495.725 108.785 524.301 111.73 532.724 108.785C541.146 105.841 547.171 118.574 541.874 124.781C536.578 130.987 540.038 136.208 543.043 141.11C546.048 146.011 544.925 152.476 538.293 153.979C531.661 155.481 542.102 162.796 542.345 171.613C542.588 180.43 539.553 182.585 531.373 185.514C523.193 188.458 527.442 192.07 530.053 199.399C532.663 206.744 517.958 221.571 505.058 210.887C492.174 200.204 489.549 181.887 486.286 181.416C483.023 180.946 477.089 160.899 477.089 160.899L495.725 108.785Z" fill="#060D28"/>
<path id="Vector_229" d="M483.994 112.701C483.994 112.701 510.446 115.417 518.231 112.701C526.031 109.984 531.6 121.761 526.699 127.512C521.797 133.264 524.999 138.09 527.776 142.627C530.553 147.165 529.506 153.144 523.39 154.54C517.259 155.936 526.926 162.705 527.139 170.869C527.351 179.034 524.559 181.022 516.986 183.738C509.414 186.455 513.344 189.793 515.757 196.592C518.17 203.375 504.557 217.109 492.629 207.23C480.701 197.351 478.288 180.384 475.253 179.944C472.233 179.504 466.74 160.944 466.74 160.944L483.994 112.701Z" fill="#060D28"/>
<path id="Vector_230" d="M437.754 245.109L426.312 252.302C426.312 252.302 416.281 271.499 415.658 294.824L451.063 292.73L486.711 255.504L437.754 245.109Z" fill="#7EB1F3"/>
<path id="Vector_231" d="M516.486 145.996C516.486 145.996 505.058 156.452 509.732 170.49C513.223 180.991 489.503 178.973 489.503 178.973L484.389 153.963C484.389 153.963 494.132 157.621 496.317 132.384C497.819 114.886 516.486 145.996 516.486 145.996Z" fill="#FEC8B4"/>
<path id="Vector_232" d="M511.493 181.416L521.676 181.78V235.229L550.479 291.318L530.993 292.76L497.986 243.212L511.493 181.416Z" fill="#FDB128"/>
<path id="Vector_233" d="M507.395 205.09L515.848 199.399C515.848 199.399 510.764 244.82 518.792 260.997C526.82 277.175 511.462 262.864 511.462 262.864C511.462 262.864 498.973 245.837 498.381 243.212C497.774 240.601 507.395 205.09 507.395 205.09Z" fill="#FDB128"/>
<path id="Vector_234" d="M452.672 259.571L457.194 292.73L496.575 293.656V259.571H452.672Z" fill="#7EB1F3"/>
<path id="Vector_235" d="M457.24 167.181L469.395 153.963H484.389C484.389 153.963 497.744 172.447 510.309 164.344C510.309 164.344 520.704 174.526 521.676 181.765C521.676 181.765 509.52 215 506.682 239.721C503.844 264.442 503.844 277.493 503.844 277.493C503.844 277.493 446.586 271.332 426.312 252.287C426.312 252.287 426.312 252.287 457.24 167.181Z" fill="#FDB128"/>
<path id="Vector_236" d="M486.392 251.877C486.392 251.877 487.181 249.145 486.347 248.295C485.527 247.446 477.545 242.832 477.545 242.832L476.331 245.943C476.331 245.943 478.819 248.417 478.986 248.66C479.153 248.887 486.392 251.877 486.392 251.877Z" fill="#FEC8B4"/>
<path id="Vector_237" d="M445.949 222.345L436.297 224.834L433.975 231.238L464.281 252.302C464.281 252.302 470.215 264.7 477.165 263.441C484.116 262.181 472.582 245.124 472.582 245.124L445.949 222.345Z" fill="#FDB128"/>
<g id="Group_67">
<g id="Group_68">
<g id="Group_69">
<path id="Vector_238" d="M521.539 301.925L517.411 300.893C505.104 297.798 493.297 292.972 482.34 286.568L478.668 284.428L501.613 241.283L535.349 255.063L521.539 301.925Z" fill="#F27367"/>
<path id="Vector_239" d="M535.197 254.866C534.894 255.625 527.124 253.167 517.851 249.373C508.579 245.579 501.31 241.891 501.629 241.148C501.932 240.389 509.702 242.847 518.974 246.641C528.247 250.42 535.516 254.108 535.197 254.866Z" fill="#F27367"/>
<path id="Vector_240" d="M535.197 254.866C534.894 255.625 527.124 253.167 517.851 249.373C508.579 245.579 501.31 241.891 501.629 241.148C501.932 240.389 509.702 242.847 518.974 246.641C528.247 250.42 535.516 254.108 535.197 254.866Z" fill="#F27367"/>
</g>
<path id="Vector_241" d="M527.609 273.457L551.223 265.459L554.576 270.68L520.704 295.416L527.609 273.457Z" fill="#F27367"/>
<path id="Vector_242" d="M552.937 270.406L550.479 266.734L551.223 265.459L551.89 263.274L556.731 270.846L554.576 270.68L552.937 270.406Z" fill="#F27367"/>
</g>
<path id="Vector_243" d="M503.192 251.862C503.192 251.862 491.097 241.269 482.507 254.32C476.179 263.942 482.629 273.942 489.382 277.918" stroke="#F27367" stroke-width="2.4855" stroke-miterlimit="10"/>
</g>
<path id="Vector_244" d="M456.678 189.429L471.505 188.336C471.505 188.336 462.263 199.172 462.263 204.605C462.263 210.038 478.03 243.439 478.03 243.439L454.584 228.355L446.51 205.166L456.678 189.429Z" fill="#FDB128"/>
<path id="Vector_245" d="M478.046 243.439L481.081 246.55C481.081 246.55 487.697 251.543 488.972 253.941C490.247 256.339 488.972 257.477 488.153 258.175C487.333 258.873 486.605 258.979 486.013 260.315C485.421 261.65 485.284 262.075 484.101 262.181C482.917 262.287 482.462 262.242 481.384 263.289C480.307 264.336 478.698 264.321 477.15 263.441C475.602 262.561 472.233 259.48 471.004 257.795C469.775 256.096 467.271 251.482 467.271 251.482L478.046 243.439Z" fill="#FEC8B4"/>
<path id="Vector_246" d="M504.891 146.436L498.351 149.107C498.351 149.107 501.204 159.351 508.731 161.491L510.855 151.52L504.891 146.436Z" fill="#FEC8B4"/>
<path id="Vector_247" d="M475.071 155.026C475.071 155.026 464.858 149.76 452.945 162.72C441.032 175.695 426.327 198.853 429.544 212.284C432.215 223.407 453.598 247.005 467.772 252.271L479.927 243.758C479.927 243.758 461.428 209.324 454.538 204.999C454.538 204.999 478.713 182.979 479.927 176.894C481.141 170.839 475.071 155.026 475.071 155.026Z" fill="#FDB128"/>
<path id="Vector_248" d="M527.655 140.715C527.624 141.049 527.594 141.383 527.533 141.701C526.608 147.483 523.026 152.006 518.565 155.375C507.76 163.509 494.557 148.667 495.816 133.416C496.985 119.272 502.721 111.274 516.516 112.412C522.844 112.928 529.673 117.299 530.053 128.104C530.128 130.411 528.945 132.475 528.489 134.69C528.08 136.694 527.837 138.682 527.655 140.715Z" fill="#FEC8B4"/>
<path id="Vector_249" d="M531.373 116.222C531.373 116.222 538.505 124.492 527.291 128.939C520.689 131.564 508.549 121.047 508.655 128.377C508.731 133.051 505.923 132.672 504.026 130.305C500.384 125.737 495.437 126.222 499.929 139.091C504.573 152.385 486.013 150.078 496.772 168.229C508.23 187.547 490.444 197.563 478.046 185.741C471.034 179.064 469.638 157.666 456.921 162.978C450.866 165.497 445.266 173.525 440.228 167.03C431.912 156.3 457.983 149.274 451.883 142.43C445.57 135.358 448.18 123.187 460.017 123.005C468.166 122.884 471.854 118.953 470.185 112.306C468.151 104.142 477.863 96.5994 486.847 100.849C495.847 105.098 493.813 92.8965 504.208 94.3382C510.855 95.2639 508.169 107.587 515.302 101.365C521.66 95.8102 529.4 97.1457 531.95 104.324C534.499 111.502 532.648 110.333 536.897 111.638C541.146 112.944 534.651 115.235 531.373 116.222Z" fill="#060D28"/>
<path id="Vector_250" d="M504.891 133.082C504.891 133.082 503.359 124.356 497.865 127.816C493.312 130.699 495.907 139.289 501.826 139.091" fill="#FEC8B4"/>
</g>
</g>
<g id="Group_70">
<g id="Group_71">
<path id="Vector_251" d="M601.879 87.8127H404.231V95.7647H601.879V87.8127Z" fill="#F0F3FF"/>
</g>
<g id="Group_72">
<path id="Vector_252" d="M601.879 91.7887H404.231V95.7647H601.879V91.7887Z" fill="#DFE4FB"/>
</g>
</g>
<path id="Vector_253" d="M612.441 307.784H404.686C400.619 307.784 397.311 304.491 397.311 300.409V296.797C397.311 292.73 400.604 289.422 404.686 289.422H612.441C616.508 289.422 619.817 292.715 619.817 296.797V300.409C619.817 304.491 616.508 307.784 612.441 307.784Z" fill="#CCA5A3"/>
<g id="Group_73">
<path id="Vector_254" d="M594.625 46.4135V287.631H410.453V46.4135H594.625ZM600.012 41.0261H405.066V293.033H600.012V41.0261V41.0261Z" fill="#DFE4FB"/>
</g>
<g id="Group_74">
<path id="Vector_255" d="M594.625 46.4135V287.631H410.453V46.4135H594.625ZM600.012 41.0261H405.066V293.033H600.012V41.0261V41.0261Z" fill="#DFE4FB"/>
</g>
<g id="Group_75">
<path id="Vector_256" d="M600.012 41.0261V293.033H405.066V41.0261H600.012ZM601.818 39.2202H600.028H405.066H403.275V41.0109V293.018V294.809H405.066H600.012H601.803V293.018V41.0261V39.2202H601.818Z" fill="white"/>
</g>
<g id="Group_76">
<path id="Vector_257" d="M594.625 46.4134V287.631H410.453V46.4134H594.625ZM598.222 42.8168H594.625H410.453H406.856V46.4134V287.631V291.227H410.453H594.61H598.222V287.631V46.4134V42.8168Z" fill="#DFE4FB"/>
</g>
<g id="Group_77">
<path id="Vector_258" d="M611.121 295.886H395.217C393.396 295.886 391.924 294.414 391.924 292.593V287.342C391.924 285.521 393.396 284.049 395.217 284.049H611.121C612.942 284.049 614.414 285.521 614.414 287.342V292.593C614.414 294.414 612.942 295.886 611.121 295.886Z" fill="#F0F3FF"/>
</g>
<g id="Group_78">
<path id="Vector_259" d="M611.121 292.123H395.217C393.396 292.123 391.924 290.651 391.924 288.83V292.593C391.924 294.414 393.396 295.886 395.217 295.886H611.121C612.942 295.886 614.414 294.414 614.414 292.593V288.83C614.414 290.651 612.942 292.123 611.121 292.123Z" fill="#DFE4FB"/>
</g>
<g id="Group_79">
<g id="Group_80">
<path id="Vector_260" d="M524.498 299.483C528.764 299.483 532.223 296.025 532.223 291.759C532.223 287.493 528.764 284.034 524.498 284.034C520.232 284.034 516.774 287.493 516.774 291.759C516.774 296.025 520.232 299.483 524.498 299.483Z" fill="#B2CCB0"/>
<path id="Vector_261" d="M539.477 285.977C539.477 288.648 537.307 290.803 534.651 290.803C531.98 290.803 529.825 288.632 529.825 285.977C529.825 283.306 531.995 281.151 534.651 281.151C537.322 281.151 539.477 283.321 539.477 285.977Z" fill="#B2CCB0"/>
<path id="Vector_262" d="M537.868 290.818C537.868 293.489 535.698 295.644 533.042 295.644C530.371 295.644 528.216 293.473 528.216 290.818C528.216 288.147 530.386 285.992 533.042 285.992C535.698 285.977 537.868 288.147 537.868 290.818Z" fill="#B2CCB0"/>
<path id="Vector_263" d="M539.477 296.584C542.142 296.584 544.303 294.424 544.303 291.759C544.303 289.093 542.142 286.933 539.477 286.933C536.811 286.933 534.651 289.093 534.651 291.759C534.651 294.424 536.811 296.584 539.477 296.584Z" fill="#B2CCB0"/>
<path id="Vector_264" d="M551.875 287.843C551.875 290.514 549.705 292.669 547.049 292.669C544.378 292.669 542.223 290.499 542.223 287.843C542.223 285.172 544.394 283.017 547.049 283.017C549.72 283.002 551.875 285.172 551.875 287.843Z" fill="#B2CCB0"/>
<path id="Vector_265" d="M557.809 292.669C557.809 295.34 555.639 297.495 552.983 297.495C550.312 297.495 548.157 295.325 548.157 292.669C548.157 289.998 550.327 287.843 552.983 287.843C555.654 287.843 557.809 289.998 557.809 292.669Z" fill="#B2CCB0"/>
</g>
<g id="Group_81">
<path id="Vector_266" d="M560.434 290.651C560.434 294.05 557.687 296.797 554.288 296.797C550.889 296.797 548.142 294.05 548.142 290.651C548.142 287.251 550.889 284.505 554.288 284.505C557.687 284.505 560.434 287.251 560.434 290.651Z" fill="#B2CCB0"/>
<path id="Vector_267" d="M564.926 286.796C564.926 288.921 563.211 290.636 561.087 290.636C558.962 290.636 557.247 288.921 557.247 286.796C557.247 284.672 558.962 282.957 561.087 282.957C563.211 282.957 564.926 284.687 564.926 286.796Z" fill="#B2CCB0"/>
<path id="Vector_268" d="M564.926 289.892C564.926 292.017 563.211 293.731 561.087 293.731C558.962 293.731 557.247 292.017 557.247 289.892C557.247 287.767 558.962 286.053 561.087 286.053C563.211 286.053 564.926 287.767 564.926 289.892Z" fill="#B2CCB0"/>
<path id="Vector_269" d="M570.056 290.651C570.056 292.775 568.341 294.49 566.216 294.49C564.092 294.49 562.377 292.775 562.377 290.651C562.377 288.526 564.092 286.811 566.216 286.811C568.326 286.796 570.056 288.526 570.056 290.651Z" fill="#B2CCB0"/>
<path id="Vector_270" d="M579.191 289.088C579.191 292.077 576.778 294.49 573.789 294.49C570.799 294.49 568.386 292.077 568.386 289.088C568.386 286.098 570.799 283.685 573.789 283.685C576.763 283.685 579.191 286.098 579.191 289.088Z" fill="#B2CCB0"/>
<path id="Vector_271" d="M583.031 291.364C583.031 293.489 581.316 295.203 579.191 295.203C577.067 295.203 575.352 293.489 575.352 291.364C575.352 289.239 577.067 287.525 579.191 287.525C581.316 287.525 583.031 289.239 583.031 291.364Z" fill="#B2CCB0"/>
<path id="Vector_272" d="M572.226 286.796C572.226 288.921 570.511 290.636 568.386 290.636C566.262 290.636 564.547 288.921 564.547 286.796C564.547 284.672 566.262 282.957 568.386 282.957C570.496 282.957 572.226 284.687 572.226 286.796Z" fill="#B2CCB0"/>
</g>
<g id="Group_82">
<path id="Vector_273" d="M584.518 292.472C584.518 295.871 581.771 298.618 578.372 298.618C574.973 298.618 572.226 295.871 572.226 292.472C572.226 289.072 574.973 286.326 578.372 286.326C581.771 286.326 584.518 289.072 584.518 292.472Z" fill="#B2CCB0"/>
<path id="Vector_274" d="M588.995 288.617C588.995 290.742 587.28 292.457 585.156 292.457C583.031 292.457 581.316 290.742 581.316 288.617C581.316 286.493 583.031 284.778 585.156 284.778C587.28 284.778 588.995 286.508 588.995 288.617Z" fill="#B2CCB0"/>
<path id="Vector_275" d="M588.995 291.713C588.995 293.838 587.28 295.553 585.156 295.553C583.031 295.553 581.316 293.838 581.316 291.713C581.316 289.588 583.031 287.874 585.156 287.874C587.28 287.874 588.995 289.588 588.995 291.713Z" fill="#B2CCB0"/>
<path id="Vector_276" d="M590.285 296.311C592.405 296.311 594.124 294.592 594.124 292.472C594.124 290.351 592.405 288.632 590.285 288.632C588.164 288.632 586.445 290.351 586.445 292.472C586.445 294.592 588.164 296.311 590.285 296.311Z" fill="#B2CCB0"/>
<path id="Vector_277" d="M603.26 290.909C603.26 293.898 600.847 296.311 597.858 296.311C594.868 296.311 592.455 293.898 592.455 290.909C592.455 287.919 594.868 285.506 597.858 285.506C600.847 285.506 603.26 287.919 603.26 290.909Z" fill="#B2CCB0"/>
<path id="Vector_278" d="M607.115 293.185C607.115 295.31 605.4 297.025 603.275 297.025C601.151 297.025 599.436 295.31 599.436 293.185C599.436 291.061 601.151 289.346 603.275 289.346C605.385 289.346 607.115 291.061 607.115 293.185Z" fill="#B2CCB0"/>
<path id="Vector_279" d="M596.294 288.617C596.294 290.742 594.58 292.457 592.455 292.457C590.33 292.457 588.616 290.742 588.616 288.617C588.616 286.493 590.33 284.778 592.455 284.778C594.58 284.778 596.294 286.508 596.294 288.617Z" fill="#B2CCB0"/>
</g>
<path id="Vector_280" d="M603.26 294.915C603.169 294.915 603.093 294.93 603.017 294.945C602.349 292.715 600.316 291.076 597.858 291.076C596.947 291.076 596.112 291.318 595.369 291.713C594.671 290.894 593.623 290.347 592.455 290.347C590.74 290.347 589.298 291.485 588.798 293.049C588.312 291.485 586.87 290.347 585.14 290.347C583.501 290.347 582.12 291.379 581.559 292.821C580.633 292.244 579.556 291.91 578.387 291.895C577.446 290.317 575.731 289.255 573.759 289.255C572.848 289.255 572.013 289.497 571.27 289.892C570.572 289.073 569.525 288.526 568.356 288.526C566.641 288.526 565.199 289.664 564.699 291.227C564.213 289.664 562.771 288.526 561.041 288.526C559.402 288.526 558.021 289.558 557.46 291C556.519 290.423 555.426 290.074 554.258 290.074C553.12 290.074 552.057 290.408 551.147 290.939C550.297 289.528 548.779 288.572 547.004 288.572C544.348 288.572 542.208 290.711 542.178 293.352C541.404 292.821 540.463 292.502 539.431 292.502C539.401 292.502 539.37 292.517 539.34 292.517C539.401 292.214 539.431 291.895 539.431 291.561C539.431 288.89 537.261 286.735 534.605 286.735C531.934 286.735 529.779 288.906 529.779 291.561C529.779 291.637 529.795 291.698 529.795 291.774C528.414 290.453 526.532 289.619 524.468 289.619C520.204 289.619 516.743 293.079 516.743 297.343C516.743 301.608 520.204 305.068 524.468 305.068C527.442 305.068 529.992 303.368 531.282 300.894C531.813 301.092 532.39 301.228 532.997 301.228C534.013 301.228 534.939 300.91 535.713 300.394C536.593 301.471 537.929 302.184 539.431 302.184C542.087 302.184 544.227 300.045 544.257 297.404C545.031 297.935 545.972 298.254 547.004 298.254C547.383 298.254 547.763 298.193 548.112 298.117C548.112 298.163 548.096 298.208 548.096 298.254C548.096 300.925 550.267 303.08 552.922 303.08C553.969 303.08 554.941 302.731 555.73 302.169C557.445 301.744 558.856 300.591 559.66 299.058C560.085 299.225 560.54 299.316 561.026 299.316C561.83 299.316 562.574 299.073 563.196 298.648C563.894 299.513 564.957 300.075 566.155 300.075C567.628 300.075 568.887 299.24 569.54 298.026C570.283 298.952 571.315 299.635 572.499 299.908C573.288 302.382 575.58 304.187 578.326 304.187C580.694 304.187 582.727 302.837 583.744 300.879C584.169 301.046 584.624 301.137 585.11 301.137C585.914 301.137 586.658 300.894 587.28 300.469C587.978 301.334 589.04 301.896 590.239 301.896C591.711 301.896 592.971 301.061 593.623 299.847C594.61 301.092 596.112 301.896 597.827 301.896C598.738 301.896 599.572 301.653 600.316 301.259C601.014 302.078 602.061 302.624 603.23 302.624C605.354 302.624 607.069 300.91 607.069 298.785C607.115 296.645 605.385 294.915 603.26 294.915Z" fill="#B2CCB0"/>
<path id="Vector_281" d="M603.715 314.993H518.853L512.874 291.743H609.695L603.715 314.993Z" fill="#F27367"/>
<path id="Vector_282" opacity="0.41" d="M546.093 311.973C533.027 311.973 521.509 303.793 517.062 291.728H512.874L518.853 314.993H603.7L604.474 311.973H546.093Z" fill="#F27367"/>
</g>
<g id="Group_83">
<g id="Group_84">
<path id="Vector_283" d="M409.74 299.483C414.006 299.483 417.464 296.025 417.464 291.759C417.464 287.493 414.006 284.034 409.74 284.034C405.474 284.034 402.015 287.493 402.015 291.759C402.015 296.025 405.474 299.483 409.74 299.483Z" fill="#B2CCB0"/>
<path id="Vector_284" d="M419.877 290.803C422.542 290.803 424.703 288.642 424.703 285.977C424.703 283.311 422.542 281.151 419.877 281.151C417.212 281.151 415.051 283.311 415.051 285.977C415.051 288.642 417.212 290.803 419.877 290.803Z" fill="#B2CCB0"/>
<path id="Vector_285" d="M423.11 290.818C423.11 293.489 420.939 295.644 418.284 295.644C415.613 295.644 413.458 293.473 413.458 290.818C413.458 288.147 415.628 285.992 418.284 285.992C420.939 285.977 423.11 288.147 423.11 290.818Z" fill="#B2CCB0"/>
<path id="Vector_286" d="M424.718 296.584C427.383 296.584 429.544 294.424 429.544 291.759C429.544 289.093 427.383 286.933 424.718 286.933C422.053 286.933 419.892 289.093 419.892 291.759C419.892 294.424 422.053 296.584 424.718 296.584Z" fill="#B2CCB0"/>
<path id="Vector_287" d="M432.291 292.669C434.956 292.669 437.117 290.509 437.117 287.843C437.117 285.178 434.956 283.017 432.291 283.017C429.626 283.017 427.465 285.178 427.465 287.843C427.465 290.509 429.626 292.669 432.291 292.669Z" fill="#B2CCB0"/>
<path id="Vector_288" d="M438.225 297.495C440.89 297.495 443.05 295.334 443.05 292.669C443.05 290.004 440.89 287.843 438.225 287.843C435.559 287.843 433.399 290.004 433.399 292.669C433.399 295.334 435.559 297.495 438.225 297.495Z" fill="#B2CCB0"/>
</g>
<g id="Group_85">
<path id="Vector_289" d="M445.676 290.651C445.676 294.05 442.929 296.797 439.53 296.797C436.13 296.797 433.384 294.05 433.384 290.651C433.384 287.251 436.13 284.505 439.53 284.505C442.929 284.505 445.676 287.251 445.676 290.651Z" fill="#B2CCB0"/>
<path id="Vector_290" d="M450.153 286.796C450.153 288.921 448.438 290.636 446.313 290.636C444.189 290.636 442.474 288.921 442.474 286.796C442.474 284.672 444.189 282.957 446.313 282.957C448.438 282.957 450.153 284.687 450.153 286.796Z" fill="#B2CCB0"/>
<path id="Vector_291" d="M450.153 289.892C450.153 292.017 448.438 293.731 446.313 293.731C444.189 293.731 442.474 292.017 442.474 289.892C442.474 287.767 444.189 286.053 446.313 286.053C448.438 286.053 450.153 287.767 450.153 289.892Z" fill="#B2CCB0"/>
<path id="Vector_292" d="M455.282 290.651C455.282 292.775 453.567 294.49 451.443 294.49C449.318 294.49 447.603 292.775 447.603 290.651C447.603 288.526 449.318 286.811 451.443 286.811C453.567 286.796 455.282 288.526 455.282 290.651Z" fill="#B2CCB0"/>
<path id="Vector_293" d="M464.433 289.088C464.433 292.077 462.02 294.49 459.03 294.49C456.041 294.49 453.628 292.077 453.628 289.088C453.628 286.098 456.041 283.685 459.03 283.685C462.005 283.685 464.433 286.098 464.433 289.088Z" fill="#B2CCB0"/>
<path id="Vector_294" d="M468.272 291.364C468.272 293.489 466.558 295.203 464.433 295.203C462.308 295.203 460.594 293.489 460.594 291.364C460.594 289.239 462.308 287.525 464.433 287.525C466.558 287.525 468.272 289.239 468.272 291.364Z" fill="#B2CCB0"/>
<path id="Vector_295" d="M457.467 286.796C457.467 288.921 455.752 290.636 453.628 290.636C451.503 290.636 449.788 288.921 449.788 286.796C449.788 284.672 451.503 282.957 453.628 282.957C455.752 282.957 457.467 284.687 457.467 286.796Z" fill="#B2CCB0"/>
</g>
<g id="Group_86">
<path id="Vector_296" d="M469.744 292.472C469.744 295.871 466.998 298.618 463.598 298.618C460.199 298.618 457.452 295.871 457.452 292.472C457.452 289.072 460.199 286.326 463.598 286.326C466.998 286.326 469.744 289.072 469.744 292.472Z" fill="#B2CCB0"/>
<path id="Vector_297" d="M474.236 288.617C474.236 290.742 472.522 292.457 470.397 292.457C468.272 292.457 466.558 290.742 466.558 288.617C466.558 286.493 468.272 284.778 470.397 284.778C472.506 284.778 474.236 286.508 474.236 288.617Z" fill="#B2CCB0"/>
<path id="Vector_298" d="M470.397 295.553C472.517 295.553 474.236 293.834 474.236 291.713C474.236 289.593 472.517 287.874 470.397 287.874C468.277 287.874 466.558 289.593 466.558 291.713C466.558 293.834 468.277 295.553 470.397 295.553Z" fill="#B2CCB0"/>
<path id="Vector_299" d="M479.366 292.472C479.366 294.596 477.651 296.311 475.526 296.311C473.402 296.311 471.687 294.596 471.687 292.472C471.687 290.347 473.402 288.632 475.526 288.632C477.651 288.632 479.366 290.347 479.366 292.472Z" fill="#B2CCB0"/>
<path id="Vector_300" d="M488.502 290.909C488.502 293.898 486.089 296.311 483.099 296.311C480.109 296.311 477.697 293.898 477.697 290.909C477.697 287.919 480.109 285.506 483.099 285.506C486.089 285.506 488.502 287.919 488.502 290.909Z" fill="#B2CCB0"/>
<path id="Vector_301" d="M492.341 293.185C492.341 295.31 490.626 297.025 488.502 297.025C486.377 297.025 484.662 295.31 484.662 293.185C484.662 291.061 486.377 289.346 488.502 289.346C490.626 289.346 492.341 291.061 492.341 293.185Z" fill="#B2CCB0"/>
<path id="Vector_302" d="M481.536 288.617C481.536 290.742 479.821 292.457 477.696 292.457C475.572 292.457 473.857 290.742 473.857 288.617C473.857 286.493 475.572 284.778 477.696 284.778C479.821 284.778 481.536 286.508 481.536 288.617Z" fill="#B2CCB0"/>
</g>
<path id="Vector_303" d="M488.502 294.915C488.411 294.915 488.335 294.93 488.259 294.945C487.591 292.715 485.558 291.076 483.099 291.076C482.189 291.076 481.354 291.318 480.61 291.713C479.912 290.894 478.865 290.347 477.696 290.347C475.982 290.347 474.54 291.485 474.039 293.049C473.554 291.485 472.112 290.347 470.382 290.347C468.743 290.347 467.362 291.379 466.8 292.821C465.875 292.244 464.797 291.91 463.629 291.895C462.688 290.317 460.973 289.255 459 289.255C458.09 289.255 457.255 289.497 456.511 289.892C455.813 289.073 454.766 288.526 453.598 288.526C451.883 288.526 450.441 289.664 449.94 291.227C449.455 289.664 448.013 288.526 446.283 288.526C444.644 288.526 443.263 289.558 442.701 291C441.76 290.423 440.668 290.074 439.499 290.074C438.361 290.074 437.299 290.408 436.388 290.939C435.538 289.528 434.021 288.572 432.245 288.572C429.59 288.572 427.45 290.711 427.42 293.352C426.646 292.821 425.705 292.502 424.673 292.502C424.642 292.502 424.612 292.517 424.582 292.517C424.642 292.214 424.673 291.895 424.673 291.561C424.673 288.89 422.503 286.735 419.847 286.735C417.176 286.735 415.021 288.906 415.021 291.561C415.021 291.637 415.036 291.698 415.036 291.774C413.655 290.453 411.773 289.619 409.709 289.619C405.445 289.619 401.985 293.079 401.985 297.343C401.985 301.608 405.445 305.068 409.709 305.068C412.684 305.068 415.233 303.368 416.523 300.894C417.054 301.092 417.631 301.228 418.238 301.228C419.255 301.228 420.181 300.91 420.955 300.394C421.835 301.471 423.17 302.184 424.673 302.184C427.328 302.184 429.468 300.045 429.499 297.404C430.273 297.935 431.213 298.254 432.245 298.254C432.625 298.254 433.004 298.193 433.353 298.117C433.353 298.163 433.338 298.208 433.338 298.254C433.338 300.925 435.508 303.08 438.164 303.08C439.211 303.08 440.182 302.731 440.971 302.169C442.686 301.744 444.098 300.591 444.902 299.058C445.327 299.225 445.782 299.316 446.268 299.316C447.072 299.316 447.816 299.073 448.438 298.648C449.136 299.513 450.198 300.075 451.397 300.075C452.869 300.075 454.129 299.24 454.781 298.026C455.525 298.952 456.557 299.635 457.74 299.908C458.53 302.382 460.821 304.187 463.568 304.187C465.935 304.187 467.969 302.837 468.986 300.879C469.411 301.046 469.866 301.137 470.351 301.137C471.156 301.137 471.899 300.894 472.522 300.469C473.22 301.334 474.282 301.896 475.481 301.896C476.953 301.896 478.212 301.061 478.865 299.847C479.851 301.092 481.354 301.896 483.069 301.896C483.979 301.896 484.814 301.653 485.558 301.259C486.256 302.078 487.303 302.624 488.471 302.624C490.596 302.624 492.311 300.91 492.311 298.785C492.341 296.645 490.626 294.915 488.502 294.915Z" fill="#B2CCB0"/>
<path id="Vector_304" d="M488.942 314.993H404.094L398.115 291.743H494.936L488.942 314.993Z" fill="#F27367"/>
<path id="Vector_305" opacity="0.41" d="M431.335 311.973C418.269 311.973 406.75 303.793 402.304 291.728H398.115L404.094 314.993H488.942L489.716 311.973H431.335Z" fill="#F27367"/>
</g>
<path id="Vector_306" d="M486.392 251.877C486.392 251.877 487.181 249.145 486.347 248.295C485.527 247.446 477.545 242.832 477.545 242.832L476.331 245.943C476.331 245.943 478.819 248.417 478.986 248.66C479.153 248.887 486.392 251.877 486.392 251.877Z" fill="#FEC8B4"/>
<g id="Group_87">
<g id="Group_88">
<path id="Vector_307" d="M488.441 279.542C484.586 277.281 479.943 272.622 478.486 266.339C477.439 261.832 478.288 257.31 480.944 253.273C483.736 249.024 487.212 246.581 491.264 246.034C498.26 245.078 504.193 250.223 504.436 250.435L501.962 253.273C501.917 253.228 497.015 249.039 491.749 249.767C488.835 250.162 486.271 252.044 484.101 255.337C481.991 258.539 481.339 261.954 482.158 265.474C483.145 269.678 486.362 273.927 490.353 276.279L488.441 279.542Z" fill="#63A1E5"/>
</g>
<g id="Group_89">
<g id="Group_90">
<path id="Vector_308" d="M521.539 301.925L517.411 300.893C505.104 297.798 493.297 292.972 482.34 286.568L478.668 284.428L501.613 241.283L535.349 255.063L521.539 301.925Z" fill="#63A1E5"/>
<path id="Vector_309" d="M535.197 254.867C534.894 255.625 527.124 253.167 517.851 249.373C508.579 245.579 501.31 241.891 501.629 241.148C501.932 240.389 509.702 242.847 518.974 246.641C528.247 250.42 535.516 254.108 535.197 254.867Z" fill="#63A1E5"/>
<path id="Vector_310" d="M535.197 254.867C534.894 255.625 527.124 253.167 517.851 249.373C508.579 245.579 501.31 241.891 501.629 241.148C501.932 240.389 509.702 242.847 518.974 246.641C528.247 250.42 535.516 254.108 535.197 254.867Z" fill="#63A1E5"/>
</g>
<path id="Vector_311" d="M527.609 273.457L551.223 265.459L554.577 270.68L520.704 295.416L527.609 273.457Z" fill="#63A1E5"/>
<path id="Vector_312" d="M552.938 270.406L550.479 266.734L551.223 265.459L551.89 263.274L556.731 270.847L554.577 270.68L552.938 270.406Z" fill="#63A1E5"/>
<g id="Group_91">
<path id="Vector_313" opacity="0.41" d="M496.848 253.378L502.038 241.45L501.629 241.283L478.683 284.428L482.355 286.568C493.312 292.972 505.119 297.798 517.426 300.893L521.554 301.925L522.359 299.179C501.644 296.69 487.955 273.85 496.848 253.378Z" fill="#63A1E5"/>
<path id="Vector_314" d="M535.197 254.867C534.894 255.625 527.124 253.167 517.851 249.373C508.579 245.579 501.31 241.891 501.629 241.148C501.932 240.389 509.702 242.847 518.974 246.641C528.247 250.42 535.516 254.108 535.197 254.867Z" fill="#63A1E5"/>
<path id="Vector_315" d="M535.197 254.867C534.894 255.625 527.124 253.167 517.851 249.373C508.579 245.579 501.31 241.891 501.629 241.148C501.932 240.389 509.702 242.847 518.974 246.641C528.247 250.42 535.516 254.108 535.197 254.867Z" fill="#63A1E5"/>
</g>
<path id="Vector_316" opacity="0.41" d="M528.626 277.918L551.223 265.459L530.189 272.577L528.626 277.918Z" fill="#63A1E5"/>
</g>
</g>
<path id="Vector_317" d="M478.046 243.439L481.081 246.55C481.081 246.55 487.697 251.543 488.972 253.941C490.247 256.339 488.972 257.477 488.153 258.175C487.333 258.873 486.605 258.979 486.013 260.315C485.421 261.65 485.284 262.075 484.101 262.181C482.917 262.287 482.462 262.242 481.384 263.289C480.307 264.336 478.698 264.321 477.15 263.441C475.602 262.561 472.233 259.48 471.004 257.795C469.775 256.096 467.271 251.482 467.271 251.482L478.046 243.439Z" fill="#FEC8B4"/>
<path id="Vector_318" d="M429.544 212.299C432.215 223.423 453.598 247.021 467.772 252.287L479.927 243.773C479.927 243.773 461.428 209.339 454.538 205.014C454.538 205.014 426.312 198.868 429.544 212.299Z" fill="#FDB128"/>
</g>
</g>
</g>
</g>
</svg>
